<svg width="35" height="35" viewBox="0 0 35 35" fill="none" xmlns="http://www.w3.org/2000/svg">
<path d="M17.4954 26.4792C12.5265 26.4792 8.51636 22.469 8.51636 17.5C8.51636 12.531 12.5265 8.52082 17.4954 8.52082C22.4643 8.52082 26.4744 12.531 26.4744 17.5C26.4744 22.469 22.4643 26.4792 17.4954 26.4792ZM27.8421 9.25011C26.682 9.25011 25.7451 8.31323 25.7451 7.15307C25.7451 5.99291 26.682 5.05603 27.8421 5.05603C29.0023 5.05603 29.9392 5.99291 29.9392 7.15307C29.9395 7.42856 29.8855 7.7014 29.7802 7.95598C29.675 8.21056 29.5205 8.44188 29.3257 8.63668C29.1309 8.83147 28.8996 8.98593 28.645 9.09119C28.3905 9.19645 28.1176 9.25046 27.8421 9.25011Z" stroke="black" stroke-width="2"/>
<rect x="1" y="1" width="33" height="33" rx="6" stroke="black" stroke-width="2"/>
</svg>
