<svg width="35" height="35" viewBox="0 0 35 35" fill="none" xmlns="http://www.w3.org/2000/svg">
<path d="M5.49376 23.9353C4.94292 23.8954 4.46398 24.3095 4.42401 24.8603C4.38404 25.4112 4.79818 25.8901 5.34901 25.9301L5.49376 23.9353ZM8.13613 26.9796L7.24147 27.4263C7.24956 27.4425 7.25808 27.4585 7.26703 27.4742L8.13613 26.9796ZM13.195 28.2734L13.6114 29.1825C13.9228 29.0399 14.1395 28.7478 14.1858 28.4085L13.195 28.2734ZM14.306 25.8731L14.975 26.6164C15.2671 26.3535 15.3781 25.944 15.2588 25.5696C15.1395 25.1952 14.812 24.9253 14.4217 24.8798L14.306 25.8731ZM8.13613 12.1894L8.8824 12.855C9.13417 12.5728 9.20514 12.1726 9.06579 11.821L8.13613 12.1894ZM8.30799 7.44182L7.99615 6.49169C7.71094 6.5853 7.48286 6.80208 7.3749 7.08218L8.30799 7.44182ZM13.1209 9.28261L12.5504 10.1039C12.7971 10.2752 13.1077 10.3267 13.3964 10.2439L13.1209 9.28261ZM17.5018 8.67714L17.5061 7.67711L17.4978 7.67715L17.5018 8.67714ZM21.8826 9.28261L21.6074 10.244C21.8962 10.3266 22.2068 10.2751 22.4534 10.1037L21.8826 9.28261ZM26.6911 7.44182L27.6239 7.08144C27.5158 6.80183 27.2881 6.58543 27.0033 6.49183L26.6911 7.44182ZM26.8652 12.1894L25.9358 11.8202C25.7959 12.1724 25.8671 12.5734 26.1197 12.8559L26.8652 12.1894ZM20.6742 25.8579L20.5614 24.8643C20.1688 24.9089 19.8393 25.1805 19.7205 25.5573C19.6017 25.9341 19.7159 26.3456 20.012 26.6072L20.6742 25.8579ZM14.1622 34.1049C14.1622 33.6767 14.1469 29.7919 14.1393 28.2936L12.1393 28.3038C12.147 29.8034 12.1622 33.6828 12.1622 34.1049H14.1622ZM5.34901 25.9301C5.86832 25.9678 6.32743 26.2772 6.70367 26.6834C6.88452 26.8787 7.02438 27.0736 7.11846 27.2195C7.16498 27.2917 7.1989 27.3497 7.21977 27.3868C7.23017 27.4053 7.23723 27.4184 7.24088 27.4254C7.24271 27.4288 7.24367 27.4307 7.24378 27.4309C7.24383 27.431 7.24366 27.4307 7.24328 27.4299C7.24309 27.4295 7.24284 27.429 7.24254 27.4284C7.24239 27.4281 7.24222 27.4278 7.24205 27.4275C7.24196 27.4273 7.24181 27.427 7.24177 27.4269C7.24162 27.4266 7.24147 27.4263 8.13613 26.9796C9.03079 26.5328 9.03063 26.5325 9.03047 26.5322C9.03041 26.5321 9.03024 26.5317 9.03013 26.5315C9.02989 26.531 9.02964 26.5305 9.02937 26.53C9.02883 26.5289 9.02824 26.5277 9.02758 26.5264C9.02626 26.5238 9.02469 26.5207 9.02288 26.5172C9.01924 26.5101 9.01461 26.5012 9.00899 26.4906C8.99775 26.4693 8.9825 26.4411 8.96326 26.4069C8.92485 26.3385 8.87017 26.2456 8.79939 26.1358C8.65888 25.9178 8.44936 25.625 8.17106 25.3244C7.62899 24.7391 6.73074 24.0251 5.49376 23.9353L5.34901 25.9301ZM7.26703 27.4742C8.19974 29.113 9.49769 29.7515 10.7704 29.8219C11.9544 29.8874 13.0084 29.4551 13.551 29.21L12.7277 27.3873C12.239 27.6081 11.5575 27.8624 10.8808 27.825C10.2929 27.7924 9.60488 27.5385 9.00523 26.4849L7.26703 27.4742ZM13.551 29.21C13.5717 29.2006 13.5919 29.1915 13.6114 29.1825L12.7786 27.3642C12.762 27.3718 12.745 27.3795 12.7277 27.3873L13.551 29.21ZM14.1858 28.4085C14.3184 27.4361 14.6825 26.8796 14.975 26.6164L13.637 25.1298C12.9307 25.7656 12.3884 26.7872 12.2041 28.1383L14.1858 28.4085ZM14.4217 24.8798C12.5406 24.6607 10.7939 24.193 9.51712 23.0909C8.28425 22.0266 7.33542 20.2325 7.33542 17.0055H5.33542C5.33542 20.654 6.42917 23.0673 8.21022 24.6048C9.94738 26.1044 12.1859 26.6329 14.1903 26.8664L14.4217 24.8798ZM7.33542 17.0055C7.33542 15.2984 7.92206 13.9317 8.8824 12.855L7.38986 11.5237C6.11199 12.9564 5.33542 14.7936 5.33542 17.0055H7.33542ZM9.06579 11.821C8.94491 11.5159 8.4076 9.96389 9.24108 7.80147L7.3749 7.08218C6.30312 9.86287 6.96927 11.9592 7.20646 12.5578L9.06579 11.821ZM8.30799 7.44182C8.61983 8.39196 8.61886 8.39228 8.61789 8.39259C8.61758 8.39269 8.61662 8.39301 8.61599 8.39321C8.61473 8.39362 8.61349 8.39401 8.61227 8.3944C8.60984 8.39518 8.60748 8.39592 8.60521 8.39662C8.60067 8.39803 8.59646 8.3993 8.59258 8.40043C8.58483 8.40269 8.57842 8.40442 8.57337 8.40572C8.56325 8.40831 8.55866 8.40912 8.55971 8.40893C8.56169 8.40856 8.58696 8.40401 8.63662 8.40168C8.73523 8.39706 8.93654 8.40091 9.24914 8.46851C9.87616 8.60412 10.9589 8.9983 12.5504 10.1039L13.6915 8.46133C11.9391 7.24396 10.6154 6.71775 9.6719 6.51371C9.19925 6.41148 8.82429 6.39069 8.54295 6.40388C8.40263 6.41046 8.287 6.42543 8.19558 6.44235C8.14993 6.45081 8.11051 6.45971 8.07724 6.46823C8.06061 6.47249 8.04554 6.47664 8.03203 6.48059C8.02527 6.48256 8.0189 6.48448 8.01292 6.48634C8.00993 6.48727 8.00704 6.48818 8.00424 6.48907C8.00285 6.48951 8.00147 6.48996 8.00012 6.49039C7.99945 6.49061 7.99846 6.49093 7.99812 6.49104C7.99713 6.49137 7.99615 6.49169 8.30799 7.44182ZM13.3964 10.2439C14.6963 9.87138 16.1018 9.68277 17.5058 9.67713L17.4978 7.67715C15.925 7.68347 14.3357 7.89421 12.8454 8.3213L13.3964 10.2439ZM17.4974 9.67713C18.8995 9.68321 20.3057 9.8714 21.6074 10.244L22.1578 8.32121C20.6658 7.89419 19.0763 7.68395 17.5061 7.67715L17.4974 9.67713ZM22.4534 10.1037C24.0438 8.99811 25.1255 8.60401 25.7515 8.46847C26.0637 8.40089 26.2645 8.39707 26.3628 8.40168C26.4122 8.404 26.4373 8.40854 26.4392 8.40888C26.4402 8.40907 26.4355 8.40824 26.4254 8.40563C26.4203 8.40433 26.4139 8.40259 26.4061 8.40032C26.4022 8.39918 26.398 8.39791 26.3934 8.3965C26.3912 8.39579 26.3888 8.39505 26.3864 8.39427C26.3851 8.39388 26.3839 8.39348 26.3826 8.39307C26.382 8.39287 26.3811 8.39255 26.3807 8.39245C26.3798 8.39214 26.3788 8.39182 26.6911 7.44182C27.0033 6.49183 27.0024 6.49151 27.0014 6.49118C27.001 6.49107 27 6.49075 26.9994 6.49053C26.998 6.49009 26.9966 6.48965 26.9952 6.4892C26.9924 6.48831 26.9895 6.4874 26.9865 6.48647C26.9806 6.48461 26.9742 6.48268 26.9674 6.4807C26.9539 6.47675 26.9388 6.47258 26.9222 6.46832C26.8889 6.45978 26.8495 6.45086 26.8038 6.4424C26.7124 6.42545 26.5968 6.41046 26.4566 6.40388C26.1753 6.39068 25.8006 6.4115 25.3283 6.51375C24.3856 6.71786 23.063 7.24415 21.3118 8.46151L22.4534 10.1037ZM25.7583 7.80221C26.5937 9.96465 26.0566 11.5163 25.9358 11.8202L27.7945 12.5586C28.0328 11.9589 28.6982 9.86211 27.6239 7.08144L25.7583 7.80221ZM26.1197 12.8559C27.0807 13.9308 27.6636 15.2966 27.6636 17.0055H29.6636C29.6636 14.7954 28.8932 12.9573 27.6106 11.5229L26.1197 12.8559ZM27.6636 17.0055C27.6636 20.2409 26.7132 22.0322 25.4795 23.0913C24.201 24.1889 22.4506 24.6498 20.5614 24.8643L20.787 26.8516C22.7962 26.6234 25.0406 26.1039 26.7822 24.6088C28.5686 23.0753 29.6636 20.6617 29.6636 17.0055H27.6636ZM20.012 26.6072C20.3754 26.9284 20.8615 27.7235 20.8615 29.1839H22.8615C22.8615 27.2958 22.2276 25.8962 21.3364 25.1086L20.012 26.6072ZM20.8615 29.1839C20.8615 30.3798 20.8563 31.4605 20.851 32.3164C20.8457 33.1681 20.8404 33.8061 20.8404 34.1044H22.8404C22.8404 33.8143 22.8456 33.1908 22.851 32.3287C22.8562 31.4707 22.8615 30.3854 22.8615 29.1839H20.8615Z" fill="black"/>
<rect x="1" y="1" width="33" height="33" rx="6" stroke="black" stroke-width="2"/>
</svg>
