<svg width="35" height="35" viewBox="0 0 35 35" fill="none" xmlns="http://www.w3.org/2000/svg">
<path d="M10.9235 28.9996H6.36205V14.2811H10.9235V28.9996ZM8.64278 10.3048C8.29558 10.3048 7.95179 10.2361 7.63104 10.1028C7.31029 9.96939 7.01888 9.77392 6.77345 9.52751C6.52802 9.2811 6.33339 8.98858 6.20068 8.66668C6.06797 8.34477 5.99978 7.99978 6 7.65142C6 6.94822 6.27841 6.27382 6.77399 5.77658C7.26957 5.27934 7.94172 5 8.64257 5C9.34342 5 10.0156 5.27934 10.5111 5.77658C11.0067 6.27382 11.2851 6.94822 11.2851 7.65142C11.2851 8.35476 11.0068 9.02932 10.5113 9.52686C10.0159 10.0244 9.34378 10.3042 8.64278 10.3048ZM28.9996 28.9996H24.4454V23.8423C24.4454 22.1348 24.4121 19.9394 22.0754 19.9394C19.7024 19.9394 19.3408 21.799 19.3408 23.7185V29H14.7832V14.2811H19.1572V16.291H19.2196C19.8284 15.1344 21.3159 13.914 23.5343 13.914C28.1478 13.914 29 16.9614 29 20.926L28.9996 28.9996Z" stroke="black" stroke-width="2"/>
<rect x="1" y="1" width="33" height="33" rx="6" stroke="black" stroke-width="2"/>
</svg>
