<svg width="306" height="366" viewBox="0 0 306 366" fill="none" xmlns="http://www.w3.org/2000/svg">
<path fill-rule="evenodd" clip-rule="evenodd" d="M189.345 124.754C186.969 124.972 185.142 125.611 183.278 127.055C182.811 128.083 182.111 129.913 182.811 131.707C183.34 133.061 184.523 133.887 184.911 134.193C187.346 134.305 190.19 134.347 193.079 133.95C193.547 133.886 194.014 133.811 194.479 133.729C195.101 132.756 196.346 130.451 196.346 129.016C196.346 127.58 195.101 125.998 194.479 125.386C192.735 124.894 190.952 124.607 189.345 124.754ZM187.245 128.567C187.245 128.119 187.012 127.67 186.312 127.67C185.712 127.507 185.145 128.343 185.145 128.567C185.145 128.791 185.845 129.464 186.078 129.464C186.312 129.464 187.245 129.016 187.245 128.567Z" fill="black"/>
<path d="M183.278 127.055C181.297 128.59 179.276 131.034 176.511 134.847L178.377 134.174C179.419 133.799 181.84 134.052 184.911 134.193M183.278 127.055C185.142 125.611 186.969 124.972 189.345 124.754C190.952 124.607 192.735 124.894 194.479 125.386M183.278 127.055C182.811 128.083 182.111 129.913 182.811 131.707C183.34 133.061 184.523 133.887 184.911 134.193M184.911 134.193C187.346 134.305 190.19 134.347 193.079 133.95C193.547 133.886 194.014 133.811 194.479 133.729M194.479 125.386C198.054 126.394 201.468 128.262 202.88 129.016C204.56 129.913 205.291 130.287 205.447 130.361C203.676 131.178 199.21 132.888 194.479 133.729M194.479 125.386C195.101 125.998 196.346 127.58 196.346 129.016C196.346 130.451 195.101 132.756 194.479 133.729M186.312 127.67C187.012 127.67 187.245 128.119 187.245 128.567C187.245 129.016 186.312 129.464 186.078 129.464C185.845 129.464 185.145 128.791 185.145 128.567C185.145 128.343 185.712 127.507 186.312 127.67Z" stroke="black" stroke-width="2" stroke-linecap="round" stroke-linejoin="round"/>
<path fill-rule="evenodd" clip-rule="evenodd" d="M201.835 116.264C187.451 115.976 178.326 120.832 172.371 123.231C169.355 122.612 162.349 121.373 158.452 121.373C154.554 121.373 149.713 121.993 147.78 122.302L144.995 120.682C139.041 118.282 131.076 113.403 115.532 113.715C108.587 113.854 95.7507 116.863 86.0684 119.472C82.8137 120.349 79.9154 121.181 77.717 121.843V125.555V127.882C79.4956 128.269 83.2848 129.461 84.2128 131.133C84.5411 131.725 84.9809 132.856 85.5164 134.326C85.562 134.451 85.6083 134.579 85.6553 134.709C87.0059 138.447 88.9222 144.117 91.1726 148.784C94.4205 155.519 102.308 167.364 117.156 166.899C132.004 166.435 148.619 161.584 150.1 141.579C151.028 129.032 150.1 128.573 150.1 128.573H167.129C167.593 129.038 166.571 138.56 167.963 145.063C172.162 164.677 185.363 168.984 200.211 169.449C212.082 169.82 219.801 162.47 224.079 156.066C224.08 156.065 224.081 156.063 224.082 156.061C225.153 154.458 226.008 152.914 226.658 151.565C229.906 144.83 231.994 135.773 233.154 133.682C233.801 132.517 235.838 131.585 237.615 130.995C237.66 130.981 237.704 130.966 237.749 130.952C237.759 130.948 237.77 130.945 237.78 130.941C238.49 130.712 239.149 130.54 239.65 130.431V124.393C236.854 123.55 232.926 122.434 228.573 121.299C219.32 118.887 208.145 116.39 201.835 116.264ZM199.281 118.587C187.032 118.215 178.556 124.47 175.85 127.644C173.994 130.431 170.613 134.844 171.442 142.74C173.759 164.804 195.337 166.894 199.745 166.894C208.33 166.894 226.657 159.927 226.193 140.65C225.729 121.374 214.593 119.051 199.281 118.587ZM118.093 116.048C130.342 115.676 138.817 121.931 141.524 125.105C143.38 127.892 146.761 132.305 145.932 140.201C143.615 162.265 124.349 164.355 117.629 164.355C111.346 164.355 90.7173 157.388 91.1813 138.111C91.6453 118.835 102.781 116.512 118.093 116.048Z" fill="#EFDCB7"/>
<path fill-rule="evenodd" clip-rule="evenodd" d="M214.125 109.762C215.404 110.67 215.986 110.637 215.986 110.637C215.398 110.321 214.775 110.029 214.125 109.762Z" fill="black"/>
<path fill-rule="evenodd" clip-rule="evenodd" d="M237.615 130.995C237.66 130.981 237.704 130.966 237.749 130.952L237.78 130.941C237.725 130.959 237.67 130.977 237.615 130.995Z" fill="black"/>
<path d="M160.772 25.6871L161.675 25.2576C161.506 24.9034 161.146 24.6804 160.754 24.6873C160.362 24.6942 160.01 24.9297 159.854 25.2896L160.772 25.6871ZM121.797 94.6645L121.171 93.884L121.171 93.884L121.797 94.6645ZM72.6808 130.852C72.4001 131.327 72.558 131.941 73.0337 132.221C73.5093 132.502 74.1224 132.344 74.4031 131.868L72.6808 130.852ZM99.0613 365L99.0613 366L99.0613 366L99.0613 365ZM39.0524 365L38.265 364.383C38.0292 364.685 37.9858 365.094 38.1533 365.438C38.3208 365.782 38.6698 366 39.0524 366V365ZM54.0314 329.671L53.0542 329.458L54.0314 329.671ZM124.117 6.41076L124.468 7.34697L124.117 6.41076ZM159.612 3.62378L158.843 4.26354C159.178 4.66614 159.767 4.7419 160.193 4.43723L159.612 3.62378ZM183.275 66.3305L184.113 65.7841L183.275 66.3305ZM221.09 115.335L221.713 114.552L221.09 115.335ZM247.073 365L247.073 366L247.073 366L247.073 365ZM273.985 265.831L274.956 265.592L274.956 265.592L273.985 265.831ZM198.355 5.94626L198.694 5.00569L198.355 5.94626ZM109.269 225.187L110.16 224.734L110.16 224.734L109.269 225.187ZM195.803 261.65L194.804 261.613L194.804 261.613L195.803 261.65ZM215.754 339.221L216.751 339.306L216.751 339.306L215.754 339.221ZM211.346 365L210.378 364.749C210.301 365.049 210.366 365.367 210.556 365.612C210.745 365.857 211.037 366 211.346 366L211.346 365ZM85.6553 134.709L86.5957 134.369L86.5957 134.369L85.6553 134.709ZM92.5655 191.744L91.7256 192.287L91.7256 192.287L92.5655 191.744ZM133.628 237.265L133.105 238.117L133.105 238.117L133.628 237.265ZM186.291 237.265L186.923 238.04L186.923 238.04L186.291 237.265ZM217.146 196.157L218.044 196.598L218.044 196.598L217.146 196.157ZM224.079 156.066L223.249 155.509L223.247 155.511L224.079 156.066ZM228.573 121.299L228.32 122.267L228.32 122.267L228.573 121.299ZM237.615 130.995L237.3 130.046L237.3 130.046L237.615 130.995ZM85.4343 118.695C84.9812 119.011 84.87 119.634 85.1858 120.087C85.5017 120.541 86.125 120.652 86.578 120.336L85.4343 118.695ZM172.371 123.231L172.17 124.211C172.363 124.251 172.563 124.232 172.745 124.159L172.371 123.231ZM201.835 116.264L201.815 117.264L201.815 117.264L201.835 116.264ZM239.65 124.393H240.65C240.65 123.951 240.36 123.562 239.938 123.435L239.65 124.393ZM239.65 130.431L239.862 131.408C240.322 131.308 240.65 130.901 240.65 130.431H239.65ZM233.154 133.682L234.028 134.168L234.028 134.168L233.154 133.682ZM226.658 151.565L227.559 152L227.559 152L226.658 151.565ZM200.211 169.449L200.242 168.449L200.211 169.449ZM167.963 145.063L168.941 144.853L168.941 144.853L167.963 145.063ZM167.129 128.573L167.836 127.866C167.649 127.679 167.394 127.573 167.129 127.573V128.573ZM150.1 128.573V127.573C149.635 127.573 149.232 127.893 149.126 128.345C149.02 128.798 149.24 129.263 149.656 129.469L150.1 128.573ZM144.995 120.682L145.498 119.818C145.457 119.793 145.414 119.772 145.369 119.754L144.995 120.682ZM115.532 113.715L115.512 112.715L115.532 113.715ZM77.717 121.843L77.4286 120.886C77.0061 121.013 76.717 121.402 76.717 121.843H77.717ZM77.717 127.882H76.717C76.717 128.352 77.0447 128.759 77.5043 128.859L77.717 127.882ZM84.2128 131.133L85.0872 130.648L85.0872 130.648L84.2128 131.133ZM91.1726 148.784L92.0733 148.349L92.0733 148.349L91.1726 148.784ZM150.1 141.579L151.097 141.653L151.097 141.653L150.1 141.579ZM147.78 122.302L147.277 123.167C147.477 123.283 147.71 123.326 147.938 123.29L147.78 122.302ZM175.85 127.644L175.089 126.995C175.063 127.025 175.039 127.057 175.017 127.09L175.85 127.644ZM199.281 118.587L199.251 119.586L199.281 118.587ZM171.442 142.74L172.437 142.636L171.442 142.74ZM141.524 125.105L142.356 124.551C142.334 124.518 142.311 124.487 142.285 124.457L141.524 125.105ZM118.093 116.048L118.123 117.047L118.093 116.048ZM145.932 140.201L144.937 140.097L145.932 140.201ZM173.067 113.192L172.071 113.283C172.099 113.584 172.261 113.856 172.512 114.024C172.763 114.192 173.077 114.237 173.366 114.146L173.067 113.192ZM173.531 109.298L172.93 108.498L172.93 108.498L173.531 109.298ZM203.226 103.492L202.984 104.462L203.226 103.492ZM212.97 108.833L213.635 108.086L212.97 108.833ZM215.986 110.637L216.043 111.636C216.489 111.61 216.865 111.291 216.962 110.854C217.059 110.418 216.854 109.969 216.46 109.757L215.986 110.637ZM195.571 107.386L195.451 106.393L195.571 107.386ZM142.908 113.192L142.61 114.146C142.898 114.236 143.212 114.191 143.463 114.024C143.715 113.856 143.877 113.583 143.904 113.282L142.908 113.192ZM142.444 109.297L142.687 108.327L142.444 109.297ZM126.437 103.956L126.7 102.991L126.437 103.956ZM112.749 103.491L113.024 104.453L112.749 103.491ZM99.9893 110.637L99.5695 109.729C99.0713 109.96 98.852 110.549 99.0781 111.049C99.3042 111.549 99.8912 111.774 100.393 111.552L99.9893 110.637ZM120.405 107.386L120.471 106.388L120.405 107.386ZM205.574 214.103L204.765 213.515L204.765 213.515L205.574 214.103ZM224.082 156.061L224.914 156.616L224.914 156.616L224.082 156.061ZM120.367 225.989L121.081 225.289L121.081 225.289L120.367 225.989ZM118.363 241.347L117.497 241.848L118.363 241.347ZM199.281 283.968L200.243 283.693L199.281 283.968ZM108.772 365L108.772 364L108.772 365ZM286.507 310.939L285.551 311.23L286.507 310.939ZM159.854 25.2896C155.686 34.9097 148.738 49.8993 141.445 63.59C137.799 70.4361 134.074 76.9434 130.573 82.2872C127.055 87.6582 123.822 91.7614 121.171 93.884L122.422 95.445C125.339 93.1085 128.718 88.7695 132.246 83.3831C135.793 77.9695 139.549 71.4042 143.211 64.5303C150.534 50.781 157.505 35.7411 161.689 26.0847L159.854 25.2896ZM99.0613 364H39.0524V366H99.0613V364ZM39.8397 365.617C44.7693 359.321 47.5605 355.094 49.6195 350.047C51.6657 345.031 52.9723 339.241 55.0085 329.883L53.0542 329.458C51.0074 338.865 49.735 344.469 47.7677 349.292C45.8133 354.082 43.1564 358.137 38.265 364.383L39.8397 365.617ZM55.0085 329.883C56.3445 323.743 55.0951 317.829 52.5795 311.795C50.0749 305.787 46.2579 299.537 42.3754 292.763C34.5806 279.162 26.3346 263.144 26.6781 241.363L24.6783 241.331C24.3259 263.677 32.8084 280.092 40.6401 293.757C44.5709 300.616 48.2917 306.707 50.7335 312.564C53.1644 318.395 54.2702 323.87 53.0542 329.458L55.0085 329.883ZM26.6781 241.363C27.3715 197.398 39.894 173.136 49.4535 136.957L47.5198 136.446C38.0562 172.263 25.3769 197.042 24.6783 241.331L26.6781 241.363ZM49.4535 136.957C51.8428 127.914 53.1828 120.534 54.2262 114.008C55.2722 107.466 56.0109 101.85 57.2072 96.2374C59.5828 85.0913 63.7569 74.0046 75.7593 56.4435L74.1082 55.315C61.9831 73.0555 57.6894 84.3805 55.2512 95.8205C54.0406 101.501 53.2858 107.222 52.2513 113.692C51.214 120.18 49.8863 127.489 47.5198 136.446L49.4535 136.957ZM75.7593 56.4435C99.8457 21.2022 115.029 10.8905 124.468 7.34697L123.765 5.47456C113.751 9.23402 98.2769 19.9532 74.1082 55.315L75.7593 56.4435ZM124.468 7.34697C133.599 3.91914 145.49 2.76595 151.028 2.76595V0.765951C145.343 0.765951 133.194 1.93495 123.765 5.47456L124.468 7.34697ZM151.028 2.76595C153.286 2.76595 155.159 2.99239 156.539 3.31951C157.23 3.4833 157.779 3.668 158.183 3.85177C158.607 4.04503 158.791 4.20111 158.843 4.26354L160.38 2.98402C160.046 2.58194 159.543 2.27354 159.011 2.03136C158.458 1.77969 157.779 1.558 157 1.37345C155.442 1.00392 153.41 0.765951 151.028 0.765951V2.76595ZM159.868 26.1167C164.523 35.9025 176.469 57.7279 182.438 66.8768L184.113 65.7841C178.203 56.7249 166.299 34.9806 161.675 25.2576L159.868 26.1167ZM182.438 66.8768C186.153 72.5717 192.776 82.5762 199.897 92.2945C206.993 101.979 214.663 111.493 220.467 116.117L221.713 114.552C216.149 110.119 208.624 100.821 201.51 91.1124C194.422 81.4381 187.821 71.4694 184.113 65.7841L182.438 66.8768ZM247.073 366L248.47 366L248.47 364L247.073 364L247.073 366ZM287.464 310.648C282.785 295.29 278.294 279.196 274.956 265.592L273.014 266.069C276.362 279.716 280.864 295.846 285.551 311.23L287.464 310.648ZM274.956 265.592C271.696 252.306 269.691 245.43 268.685 236.6C267.68 227.772 267.676 216.985 268.488 195.963L266.49 195.886C265.678 216.9 265.674 227.828 266.698 236.826C267.723 245.821 269.778 252.879 273.014 266.069L274.956 265.592ZM268.488 195.963C269.301 174.919 268.668 166.911 266.518 158.007C264.368 149.101 260.816 139.651 255.708 115.131L253.75 115.539C258.85 140.022 262.491 149.849 264.574 158.477C266.658 167.108 267.301 174.893 266.49 195.886L268.488 195.963ZM255.708 115.131C250.597 90.5929 243.56 65.717 234.234 45.6743C224.934 25.6851 213.245 10.2596 198.694 5.00569L198.015 6.88682C211.768 11.8524 223.162 26.619 232.421 46.518C241.655 66.3636 248.654 91.0721 253.75 115.539L255.708 115.131ZM198.694 5.00569C187.508 0.966696 178.099 0.0778037 171.257 0.355405C167.837 0.494142 165.057 0.924332 163.013 1.39968C161.992 1.63721 161.149 1.88755 160.497 2.12148C159.874 2.34531 159.352 2.58024 159.03 2.81034L160.193 4.43723C160.278 4.37703 160.579 4.21723 161.174 4.00374C161.74 3.80036 162.507 3.57079 163.466 3.34767C165.384 2.9017 168.04 2.48759 171.338 2.35376C177.932 2.08623 187.082 2.93917 198.015 6.88682L198.694 5.00569ZM145.026 338.04C148.237 320.669 149.427 300.345 143.124 286.323L141.3 287.143C147.333 300.564 146.262 320.351 143.059 337.676L145.026 338.04ZM214.758 339.135C213.652 352.057 210.915 362.677 210.378 364.749L212.314 365.251C212.86 363.143 215.63 352.396 216.751 339.306L214.758 339.135ZM84.6553 134.719C84.8555 153.992 85.3139 166.34 86.3648 174.862C87.4186 183.407 89.0775 188.19 91.7256 192.287L93.4053 191.201C90.9779 187.446 89.382 182.988 88.3497 174.617C87.3144 166.222 86.8555 153.979 86.6552 134.699L84.6553 134.719ZM133.105 238.117C140.419 242.611 145.193 245.156 149.187 246.569C153.222 247.996 156.423 248.251 160.54 248.251V246.251C156.537 246.251 153.59 246.004 149.853 244.683C146.075 243.347 141.454 240.899 134.152 236.413L133.105 238.117ZM218.044 196.598C221.293 189.977 223.355 185.363 224.599 181.262C225.852 177.13 226.266 173.546 226.266 168.984H224.266C224.266 173.397 223.868 176.779 222.685 180.681C221.493 184.613 219.496 189.099 216.248 195.717L218.044 196.598ZM185.659 236.49C179.494 241.519 171.128 246.251 160.54 246.251V248.251C171.759 248.251 180.56 243.23 186.923 238.04L185.659 236.49ZM226.266 168.984C226.266 166.822 225.766 161.736 225.072 155.947L223.086 156.185C223.784 162.009 224.266 166.966 224.266 168.984H226.266ZM108.772 364L99.0613 364L99.0613 366L108.772 366L108.772 364ZM211.346 366L247.073 366L247.073 364L211.346 364L211.346 366ZM220.467 116.117C223.075 118.194 225.596 120.106 227.93 122.065L229.216 120.533C226.858 118.555 224.268 116.588 221.713 114.552L220.467 116.117ZM172.745 124.159C178.762 121.734 187.678 116.981 201.815 117.264L201.855 115.264C187.224 114.971 177.89 119.929 171.998 122.304L172.745 124.159ZM201.815 117.264C206.337 117.354 213.513 118.704 220.718 120.385C227.896 122.059 235.009 124.039 239.361 125.35L239.938 123.435C235.552 122.114 228.397 120.123 221.172 118.437C213.974 116.758 206.612 115.359 201.855 115.264L201.815 117.264ZM238.65 124.393V130.431H240.65V124.393H238.65ZM232.279 133.197C231.935 133.818 231.559 134.872 231.156 136.1C230.745 137.351 230.267 138.913 229.736 140.579C228.664 143.943 227.348 147.832 225.757 151.131L227.559 152C229.216 148.563 230.568 144.556 231.642 141.186C232.184 139.484 232.648 137.968 233.056 136.723C233.473 135.455 233.793 134.592 234.028 134.168L232.279 133.197ZM200.242 168.449C192.883 168.219 186.084 167.036 180.627 163.591C175.213 160.173 170.995 154.446 168.941 144.853L166.986 145.272C169.131 155.294 173.612 161.528 179.56 165.282C185.465 169.01 192.69 170.214 200.179 170.448L200.242 168.449ZM168.941 144.853C168.27 141.718 168.175 137.808 168.198 134.561C168.204 133.754 168.217 132.993 168.23 132.298C168.242 131.607 168.255 130.976 168.259 130.439C168.264 129.908 168.261 129.442 168.239 129.088C168.229 128.913 168.212 128.735 168.182 128.577C168.167 128.499 168.144 128.4 168.107 128.297C168.075 128.212 168.001 128.031 167.836 127.866L166.421 129.28C166.286 129.144 166.238 129.01 166.23 128.988C166.216 128.95 166.214 128.931 166.217 128.949C166.224 128.985 166.234 129.066 166.243 129.209C166.26 129.489 166.264 129.895 166.259 130.423C166.255 130.946 166.243 131.563 166.23 132.262C166.217 132.957 166.204 133.727 166.198 134.546C166.175 137.802 166.265 141.904 166.986 145.272L168.941 144.853ZM167.129 127.573H150.1V129.573H167.129V127.573ZM145.369 119.754C139.495 117.387 131.309 112.399 115.512 112.715L115.552 114.714C130.844 114.408 138.586 119.177 144.621 121.609L145.369 119.754ZM77.5043 128.859C78.3446 129.042 79.6728 129.419 80.8873 129.943C81.494 130.205 82.0475 130.494 82.49 130.798C82.9443 131.11 83.2133 131.393 83.3384 131.618L85.0872 130.648C84.7483 130.037 84.1957 129.544 83.6229 129.15C83.0383 128.748 82.3593 128.401 81.6805 128.107C80.3237 127.521 78.868 127.109 77.9296 126.904L77.5043 128.859ZM90.2719 149.218C93.5514 156.019 101.7 168.383 117.187 167.899L117.125 165.9C102.916 166.344 95.2896 155.019 92.0733 148.349L90.2719 149.218ZM117.187 167.899C124.682 167.664 132.75 166.323 139.16 162.421C145.633 158.481 150.333 151.975 151.097 141.653L149.102 141.505C148.386 151.187 144.038 157.11 138.12 160.712C132.141 164.353 124.478 165.669 117.125 165.9L117.187 167.899ZM151.097 141.653C151.562 135.365 151.566 132.057 151.446 130.302C151.385 129.429 151.292 128.894 151.187 128.551C151.135 128.378 151.07 128.219 150.982 128.081C150.937 128.01 150.88 127.936 150.809 127.866C150.774 127.831 150.734 127.797 150.689 127.765C150.667 127.749 150.644 127.733 150.619 127.719C150.607 127.711 150.595 127.704 150.582 127.697C150.576 127.694 150.569 127.69 150.563 127.687C150.56 127.685 150.555 127.683 150.553 127.682C150.548 127.679 150.543 127.677 150.1 128.573C149.656 129.469 149.651 129.467 149.647 129.464C149.645 129.464 149.64 129.461 149.637 129.459C149.631 129.456 149.624 129.453 149.618 129.449C149.606 129.442 149.593 129.435 149.582 129.428C149.558 129.414 149.536 129.399 149.516 129.385C149.475 129.355 149.44 129.325 149.411 129.296C149.353 129.24 149.316 129.188 149.294 129.154C149.253 129.09 149.253 129.065 149.273 129.131C149.314 129.266 149.394 129.63 149.45 130.44C149.561 132.051 149.565 135.246 149.102 141.505L151.097 141.653ZM144.492 121.546L147.277 123.167L148.283 121.438L145.498 119.818L144.492 121.546ZM147.938 123.29C149.849 122.984 154.631 122.373 158.452 122.373V120.373C154.478 120.373 149.578 121.002 147.622 121.315L147.938 123.29ZM158.452 122.373C162.234 122.373 169.147 123.59 172.17 124.211L172.573 122.252C169.564 121.634 162.464 120.373 158.452 120.373V122.373ZM228.32 122.267C232.662 123.399 236.578 124.512 239.361 125.35L239.938 123.435C237.13 122.589 233.19 121.47 228.825 120.332L228.32 122.267ZM74.4031 131.868C74.6032 131.53 75.3032 130.38 76.115 129.179C76.9548 127.936 77.8215 126.78 78.3659 126.316L77.068 124.794C76.2809 125.465 75.2685 126.859 74.4579 128.059C73.6192 129.3 72.8974 130.485 72.6808 130.852L74.4031 131.868ZM78.717 125.555V121.843H76.717V125.555H78.717ZM78.0054 122.801C80.1937 122.141 83.0826 121.312 86.3286 120.438L85.8082 118.507C82.5448 119.386 79.637 120.22 77.4286 120.886L78.0054 122.801ZM86.6401 120.293C97.3572 112.826 113.32 102.735 122.422 95.445L121.171 93.884C112.132 101.123 96.3583 111.084 85.4967 118.652L86.6401 120.293ZM115.512 112.715C108.423 112.857 95.4667 115.904 85.8082 118.507L86.3286 120.438C96.0348 117.822 108.751 114.85 115.552 114.714L115.512 112.715ZM85.4967 118.652C85.4762 118.666 85.4551 118.681 85.4343 118.695L86.578 120.336C86.5986 120.322 86.6191 120.307 86.6401 120.293L85.4967 118.652ZM76.717 125.555V127.882H78.717V125.555H76.717ZM176.611 128.293C179.15 125.315 187.348 119.225 199.251 119.586L199.312 117.587C186.716 117.205 177.963 123.626 175.089 126.995L176.611 128.293ZM199.251 119.586C206.927 119.819 213.271 120.525 217.765 123.406C222.145 126.213 224.966 131.235 225.193 140.674L227.192 140.626C226.955 130.789 223.976 125.011 218.844 121.722C213.827 118.506 206.947 117.819 199.312 117.587L199.251 119.586ZM225.193 140.674C225.416 149.938 221.145 156.208 215.767 160.198C210.346 164.219 203.828 165.894 199.745 165.894V167.894C204.248 167.894 211.186 166.086 216.958 161.804C222.773 157.49 227.433 150.639 227.192 140.626L225.193 140.674ZM199.745 165.894C197.639 165.894 191.319 165.386 185.275 162.206C179.284 159.054 173.555 153.282 172.437 142.636L170.447 142.845C171.646 154.262 177.864 160.567 184.344 163.976C190.77 167.357 197.443 167.894 199.745 167.894V165.894ZM172.437 142.636C171.648 135.128 174.827 130.986 176.682 128.198L175.017 127.09C173.162 129.877 169.577 134.559 170.447 142.845L172.437 142.636ZM142.285 124.457C139.411 121.087 130.658 114.666 118.062 115.048L118.123 117.047C130.026 116.686 138.223 122.776 140.763 125.754L142.285 124.457ZM118.062 115.048C110.427 115.28 103.547 115.967 98.5295 119.183C93.398 122.472 90.4184 128.25 90.1816 138.087L92.181 138.135C92.4082 128.696 95.2285 123.674 99.6087 120.867C104.103 117.986 110.447 117.28 118.123 117.047L118.062 115.048ZM90.1816 138.087C89.9394 148.148 95.2238 154.993 101.299 159.279C107.328 163.533 114.254 165.355 117.629 165.355V163.355C114.721 163.355 108.191 161.694 102.452 157.645C96.7573 153.628 91.9592 147.351 92.181 138.135L90.1816 138.087ZM117.629 165.355C121.065 165.355 127.756 164.825 133.914 161.428C140.133 157.997 145.732 151.678 146.926 140.306L144.937 140.097C143.815 150.788 138.622 156.547 132.948 159.677C127.214 162.84 120.913 163.355 117.629 163.355V165.355ZM146.926 140.306C147.797 132.021 144.212 127.338 142.356 124.551L140.692 125.66C142.547 128.447 145.726 132.589 144.937 140.097L146.926 140.306ZM174.063 113.102C173.987 112.27 173.956 111.479 174.008 110.862C174.034 110.553 174.078 110.326 174.128 110.176C174.182 110.012 174.211 110.037 174.132 110.097L172.93 108.498C172.545 108.788 172.344 109.203 172.23 109.545C172.111 109.903 172.048 110.302 172.015 110.695C171.949 111.485 171.992 112.411 172.071 113.283L174.063 113.102ZM174.132 110.097C174.12 110.106 174.153 110.082 174.27 110.021C174.375 109.966 174.517 109.898 174.697 109.818C175.055 109.656 175.533 109.457 176.107 109.229C177.254 108.775 178.755 108.221 180.383 107.659C183.654 106.528 187.366 105.388 189.726 104.938L189.351 102.974C186.839 103.453 183.011 104.635 179.729 105.768C178.08 106.338 176.551 106.902 175.371 107.37C174.781 107.603 174.272 107.815 173.875 107.994C173.516 108.156 173.15 108.333 172.93 108.498L174.132 110.097ZM189.726 104.938C192.097 104.486 194.891 104.23 197.377 104.16C199.897 104.088 201.98 104.211 202.984 104.462L203.469 102.521C202.177 102.198 199.853 102.089 197.32 102.161C194.755 102.234 191.852 102.497 189.351 102.974L189.726 104.938ZM202.984 104.462C206.493 105.339 210.296 107.794 212.306 109.581L213.635 108.086C211.467 106.159 207.384 103.5 203.469 102.521L202.984 104.462ZM195.451 106.393C192.467 106.752 187.701 107.933 183.271 109.151C178.819 110.374 174.631 111.655 172.769 112.238L173.366 114.146C175.215 113.568 179.379 112.294 183.801 111.079C188.245 109.858 192.874 108.717 195.69 108.379L195.451 106.393ZM143.904 113.282C143.986 112.375 143.988 111.365 143.903 110.546C143.861 110.143 143.794 109.74 143.685 109.406C143.631 109.241 143.553 109.046 143.431 108.867C143.317 108.698 143.084 108.427 142.687 108.327L142.201 110.268C141.92 110.197 141.794 110.016 141.776 109.99C141.751 109.953 141.76 109.952 141.783 110.025C141.829 110.166 141.878 110.41 141.914 110.753C141.983 111.426 141.985 112.305 141.912 113.101L143.904 113.282ZM142.687 108.327C142.513 108.284 141.76 108.026 140.555 107.605C139.388 107.197 137.86 106.657 136.215 106.085C132.933 104.944 129.131 103.655 126.7 102.991L126.173 104.92C128.527 105.563 132.264 106.829 135.558 107.974C137.201 108.545 138.72 109.082 139.894 109.493C141.03 109.89 141.912 110.195 142.201 110.268L142.687 108.327ZM126.7 102.991C121.507 101.573 117.592 101.065 112.474 102.53L113.024 104.453C117.649 103.129 121.158 103.55 126.173 104.92L126.7 102.991ZM112.474 102.53C110.835 102.999 108.712 104.102 106.851 105.187C104.969 106.285 103.261 107.421 102.424 108.019L103.587 109.647C104.373 109.084 106.03 107.981 107.859 106.914C109.71 105.835 111.647 104.847 113.024 104.453L112.474 102.53ZM102.424 108.019C101.649 108.573 100.929 109.004 100.403 109.296C100.14 109.442 99.9275 109.552 99.7824 109.625C99.7099 109.662 99.6544 109.689 99.6182 109.706C99.6001 109.715 99.5868 109.721 99.5786 109.725C99.5745 109.727 99.5716 109.728 99.5701 109.729C99.5694 109.73 99.5689 109.73 99.5688 109.73C99.5688 109.73 99.5688 109.73 99.5689 109.73C99.569 109.73 99.5691 109.73 99.5692 109.73C99.5692 109.73 99.5693 109.73 99.5693 109.73C99.5694 109.73 99.5695 109.729 99.9893 110.637C100.409 111.545 100.409 111.545 100.409 111.545C100.409 111.545 100.409 111.545 100.41 111.545C100.41 111.544 100.41 111.544 100.41 111.544C100.411 111.544 100.411 111.544 100.412 111.543C100.413 111.543 100.415 111.542 100.417 111.541C100.42 111.539 100.426 111.537 100.432 111.534C100.445 111.528 100.463 111.519 100.486 111.508C100.533 111.486 100.599 111.454 100.682 111.412C100.849 111.328 101.085 111.205 101.374 111.044C101.95 110.725 102.737 110.254 103.587 109.647L102.424 108.019ZM100.393 111.552C100.951 111.305 102.175 110.956 103.856 110.57C105.507 110.192 107.52 109.796 109.601 109.445C113.802 108.737 118.139 108.237 120.338 108.383L120.471 106.388C118.007 106.223 113.452 106.768 109.268 107.473C107.156 107.829 105.104 108.232 103.409 108.621C101.744 109.002 100.342 109.388 99.5853 109.722L100.393 111.552ZM120.338 108.383C123.7 108.608 128.306 109.74 132.595 110.988C136.88 112.234 140.711 113.552 142.61 114.146L143.207 112.237C141.393 111.67 137.453 110.318 133.154 109.067C128.859 107.818 124.07 106.628 120.471 106.388L120.338 108.383ZM110.16 224.734C106.642 217.825 102.769 207.679 100.155 200.666L98.2813 201.365C100.889 208.359 104.799 218.613 108.378 225.641L110.16 224.734ZM100.016 200.412C96.8367 196.204 94.4724 192.852 93.4053 191.201L91.7256 192.287C92.8317 193.998 95.2296 197.395 98.4204 201.618L100.016 200.412ZM237.3 130.046C236.378 130.352 235.36 130.755 234.474 131.249C233.62 131.725 232.743 132.362 232.279 133.197L234.028 134.168C234.212 133.837 234.677 133.425 235.447 132.996C236.185 132.585 237.075 132.228 237.929 131.945L237.3 130.046ZM216.248 195.717C214.173 199.947 209.745 206.66 204.765 213.515L206.383 214.69C211.367 207.829 215.886 200.996 218.044 196.598L216.248 195.717ZM83.3384 131.618C83.6205 132.126 84.033 133.175 84.5768 134.668L86.4561 133.984C85.9288 132.536 85.4617 131.323 85.0872 130.648L83.3384 131.618ZM84.5768 134.668C84.6221 134.793 84.6681 134.92 84.7148 135.049L86.5957 134.369C86.5485 134.238 86.502 134.11 86.4561 133.984L84.5768 134.668ZM84.7148 135.049C86.0535 138.754 87.9927 144.492 90.2719 149.218L92.0733 148.349C89.8517 143.742 87.9584 138.14 86.5957 134.369L84.7148 135.049ZM200.179 170.448C212.541 170.835 220.539 163.167 224.91 156.622L223.247 155.511C219.064 161.774 211.623 168.805 200.242 168.449L200.179 170.448ZM224.909 156.624C224.911 156.621 224.913 156.618 224.913 156.618C224.914 156.616 224.914 156.617 224.913 156.618L223.252 155.504C223.25 155.507 223.249 155.509 223.248 155.51C223.247 155.511 223.248 155.51 223.249 155.509L224.909 156.624ZM224.914 156.616C226.012 154.972 226.89 153.387 227.559 152L225.757 151.131C225.126 152.441 224.294 153.944 223.251 155.506L224.914 156.616ZM238.087 131.893C238.767 131.674 239.395 131.51 239.862 131.408L239.437 129.454C238.904 129.57 238.213 129.751 237.473 129.99L238.087 131.893ZM228.825 120.332C219.591 117.924 208.303 115.393 201.855 115.264L201.815 117.264C207.988 117.387 219.049 119.85 228.32 122.267L228.825 120.332ZM223.251 155.506C219.068 161.77 211.627 168.805 200.242 168.449L200.179 170.448C212.545 170.835 220.543 163.162 224.914 156.616L223.251 155.506ZM84.5768 134.668C85.9186 138.353 87.9147 144.33 90.2719 149.218L92.0733 148.349C89.7732 143.58 87.8275 137.75 86.4561 133.984L84.5768 134.668ZM98.4204 201.618C103.928 208.908 111.847 218.728 119.653 226.689L121.081 225.289C113.36 217.414 105.5 207.671 100.016 200.412L98.4204 201.618ZM119.653 226.689C124.316 231.445 128.984 235.585 133.105 238.117L134.152 236.413C130.242 234.01 125.709 230.009 121.081 225.289L119.653 226.689ZM143.124 286.323C135.009 268.269 126.12 252.748 119.228 240.846L117.497 241.848C124.386 253.745 133.23 269.19 141.3 287.143L143.124 286.323ZM119.228 240.846C115.444 234.311 112.28 228.896 110.16 224.734L108.378 225.641C110.529 229.865 113.729 235.34 117.497 241.848L119.228 240.846ZM186.923 238.04C188.914 236.416 192.089 232.913 195.647 228.601L194.104 227.328C190.536 231.653 187.476 235.007 185.659 236.49L186.923 238.04ZM195.647 228.601C199.045 224.483 202.843 219.565 206.383 214.69L204.765 213.515C201.246 218.36 197.473 223.245 194.104 227.328L195.647 228.601ZM204.629 213.777C201.661 222.406 197.611 236.81 195.752 250.851L197.735 251.114C199.572 237.24 203.582 222.97 206.52 214.428L204.629 213.777ZM195.752 250.851C195.27 254.493 194.934 258.116 194.804 261.613L196.802 261.687C196.93 258.265 197.259 254.706 197.735 251.114L195.752 250.851ZM193.877 227.916C193.721 231.151 193.627 236.19 193.855 240.808C193.969 243.115 194.164 245.34 194.478 247.192C194.634 248.117 194.824 248.968 195.054 249.697C195.281 250.415 195.566 251.076 195.942 251.581L197.545 250.384C197.362 250.139 197.159 249.72 196.961 249.095C196.768 248.482 196.597 247.728 196.449 246.858C196.155 245.116 195.964 242.978 195.852 240.709C195.629 236.173 195.72 231.202 195.874 228.013L193.877 227.916ZM120.367 225.989C119.367 225.989 119.367 225.989 119.367 225.989C119.367 225.989 119.367 225.989 119.367 225.989C119.367 225.989 119.367 225.989 119.367 225.989C119.367 225.989 119.367 225.99 119.367 225.99C119.367 225.99 119.367 225.99 119.367 225.99C119.367 225.991 119.367 225.991 119.367 225.991C119.367 225.991 119.367 225.991 119.367 225.992C119.367 225.992 119.367 225.992 119.367 225.993C119.367 225.993 119.367 225.993 119.367 225.994C119.367 225.994 119.367 225.994 119.367 225.995C119.367 225.995 119.367 225.996 119.367 225.996C119.367 225.996 119.367 225.997 119.367 225.997C119.367 225.998 119.367 225.998 119.367 225.999C119.367 225.999 119.367 226 119.367 226C119.367 226.001 119.367 226.001 119.367 226.002C119.367 226.003 119.367 226.003 119.367 226.004C119.367 226.004 119.367 226.005 119.367 226.006C119.367 226.006 119.367 226.007 119.367 226.008C119.367 226.008 119.367 226.009 119.367 226.01C119.367 226.011 119.367 226.011 119.367 226.012C119.367 226.013 119.367 226.014 119.367 226.014C119.367 226.015 119.367 226.016 119.367 226.017C119.367 226.018 119.367 226.019 119.367 226.02C119.367 226.02 119.367 226.021 119.367 226.022C119.367 226.023 119.367 226.024 119.367 226.025C119.367 226.026 119.367 226.027 119.367 226.028C119.367 226.029 119.367 226.03 119.367 226.031C119.367 226.032 119.367 226.033 119.367 226.034C119.367 226.035 119.367 226.036 119.367 226.037C119.367 226.038 119.367 226.04 119.367 226.041C119.367 226.042 119.367 226.043 119.367 226.044C119.367 226.045 119.367 226.047 119.367 226.048C119.367 226.049 119.367 226.05 119.367 226.051C119.367 226.053 119.367 226.054 119.367 226.055C119.367 226.056 119.367 226.058 119.367 226.059C119.367 226.06 119.367 226.062 119.367 226.063C119.367 226.064 119.367 226.066 119.367 226.067C119.367 226.069 119.367 226.07 119.367 226.071C119.367 226.073 119.367 226.074 119.367 226.076C119.367 226.077 119.367 226.079 119.367 226.08C119.367 226.082 119.367 226.083 119.367 226.085C119.367 226.086 119.367 226.088 119.367 226.089C119.367 226.091 119.367 226.092 119.367 226.094C119.367 226.096 119.367 226.097 119.367 226.099C119.367 226.101 119.367 226.102 119.367 226.104C119.367 226.105 119.367 226.107 119.367 226.109C119.367 226.111 119.367 226.112 119.367 226.114C119.367 226.116 119.367 226.117 119.367 226.119C119.367 226.121 119.367 226.123 119.367 226.125C119.367 226.126 119.367 226.128 119.367 226.13C119.367 226.132 119.367 226.134 119.367 226.136C119.367 226.138 119.367 226.139 119.367 226.141C119.367 226.143 119.367 226.145 119.367 226.147C119.367 226.149 119.367 226.151 119.367 226.153C119.367 226.155 119.367 226.157 119.367 226.159C119.367 226.161 119.367 226.163 119.367 226.165C119.367 226.167 119.367 226.169 119.367 226.171C119.367 226.173 119.367 226.175 119.367 226.177C119.367 226.179 119.367 226.182 119.367 226.184C119.367 226.186 119.367 226.188 119.367 226.19C119.367 226.192 119.367 226.195 119.367 226.197C119.367 226.199 119.367 226.201 119.367 226.203C119.367 226.206 119.367 226.208 119.367 226.21C119.367 226.212 119.367 226.215 119.367 226.217C119.367 226.219 119.367 226.222 119.367 226.224C119.367 226.226 119.367 226.229 119.367 226.231C119.367 226.233 119.367 226.236 119.367 226.238C119.367 226.24 119.367 226.243 119.367 226.245C119.367 226.248 119.367 226.25 119.367 226.253C119.367 226.255 119.367 226.258 119.367 226.26C119.367 226.263 119.367 226.265 119.367 226.268C119.367 226.27 119.367 226.273 119.367 226.275C119.367 226.278 119.367 226.28 119.367 226.283C119.367 226.285 119.367 226.288 119.367 226.291C119.367 226.293 119.367 226.296 119.367 226.299C119.367 226.301 119.367 226.304 119.367 226.307C119.367 226.309 119.367 226.312 119.367 226.315C119.367 226.317 119.367 226.32 119.367 226.323C119.367 226.326 119.367 226.328 119.367 226.331C119.367 226.334 119.367 226.337 119.367 226.339C119.367 226.342 119.367 226.345 119.367 226.348C119.367 226.351 119.367 226.354 119.367 226.356C119.367 226.359 119.367 226.362 119.367 226.365C119.367 226.368 119.367 226.371 119.367 226.374C119.367 226.377 119.367 226.38 119.367 226.383C119.367 226.385 119.367 226.388 119.367 226.391C119.367 226.394 119.367 226.397 119.367 226.4C119.367 226.403 119.367 226.406 119.367 226.409C119.367 226.413 119.367 226.416 119.367 226.419C119.367 226.422 119.367 226.425 119.367 226.428C119.367 226.431 119.367 226.434 119.367 226.437C119.367 226.44 119.367 226.443 119.367 226.447C119.367 226.45 119.367 226.453 119.367 226.456C119.367 226.459 119.367 226.463 119.367 226.466C119.367 226.469 119.367 226.472 119.367 226.475C119.367 226.479 119.367 226.482 119.367 226.485C119.367 226.488 119.367 226.492 119.367 226.495C119.367 226.498 119.367 226.502 119.367 226.505C119.367 226.508 119.367 226.512 119.367 226.515C119.367 226.518 119.367 226.522 119.367 226.525C119.367 226.529 119.367 226.532 119.367 226.535C119.367 226.539 119.367 226.542 119.367 226.546C119.367 226.549 119.367 226.553 119.367 226.556C119.367 226.559 119.367 226.563 119.367 226.566C119.367 226.57 119.367 226.573 119.367 226.577C119.367 226.58 119.367 226.584 119.367 226.588C119.367 226.591 119.367 226.595 119.367 226.598C119.367 226.602 119.367 226.605 119.367 226.609C119.367 226.613 119.367 226.616 119.367 226.62C119.367 226.624 119.367 226.627 119.367 226.631C119.367 226.634 119.367 226.638 119.367 226.642C119.367 226.646 119.367 226.649 119.367 226.653C119.367 226.657 119.367 226.66 119.367 226.664C119.367 226.668 119.367 226.672 119.367 226.675C119.367 226.679 119.367 226.683 119.367 226.687C119.367 226.691 119.367 226.694 119.367 226.698C119.367 226.702 119.367 226.706 119.367 226.71C119.367 226.713 119.367 226.717 119.367 226.721C119.367 226.725 119.367 226.729 119.367 226.733C119.367 226.737 119.367 226.741 119.367 226.745C119.367 226.749 119.367 226.752 119.367 226.756C119.367 226.76 119.367 226.764 119.367 226.768C119.367 226.772 119.367 226.776 119.367 226.78C119.367 226.784 119.367 226.788 119.367 226.792C119.367 226.796 119.367 226.8 119.367 226.804C119.367 226.808 119.367 226.813 119.367 226.817C119.367 226.821 119.367 226.825 119.367 226.829C119.367 226.833 119.367 226.837 119.367 226.841C119.367 226.845 119.367 226.849 119.367 226.854C119.367 226.858 119.367 226.862 119.367 226.866C119.367 226.87 119.367 226.874 119.367 226.879C119.367 226.883 119.367 226.887 119.367 226.891C119.367 226.896 119.367 226.9 119.367 226.904C119.367 226.908 119.367 226.913 119.367 226.917C119.367 226.921 119.367 226.925 119.367 226.93C119.367 226.934 119.367 226.938 119.367 226.943C119.367 226.947 119.367 226.951 119.367 226.956C119.367 226.96 119.367 226.964 119.367 226.969C119.367 226.973 119.367 226.977 119.367 226.982C119.367 226.986 119.367 226.991 119.367 226.995C119.367 226.999 119.367 227.004 119.367 227.008C119.367 227.013 119.367 227.017 119.367 227.022C119.367 227.026 119.367 227.031 119.367 227.035C119.367 227.04 119.367 227.044 119.367 227.049C119.367 227.053 119.367 227.058 119.367 227.062C119.367 227.067 119.367 227.071 119.367 227.076C119.367 227.08 119.367 227.085 119.367 227.089C119.367 227.094 119.367 227.099 119.367 227.103C119.367 227.108 119.367 227.112 119.367 227.117C119.367 227.122 119.367 227.126 119.367 227.131C119.367 227.136 119.367 227.14 119.367 227.145C119.367 227.15 119.367 227.154 119.367 227.159C119.367 227.164 119.367 227.168 119.367 227.173C119.367 227.178 119.367 227.183 119.367 227.187C119.367 227.192 119.367 227.197 119.367 227.202C119.367 227.206 119.367 227.211 119.367 227.216C119.367 227.221 119.367 227.225 119.367 227.23C119.367 227.235 119.367 227.24 119.367 227.245C119.367 227.249 119.367 227.254 119.367 227.259C119.367 227.264 119.367 227.269 119.367 227.274C119.367 227.279 119.367 227.283 119.367 227.288C119.367 227.293 119.367 227.298 119.367 227.303C119.367 227.308 119.367 227.313 119.367 227.318C119.367 227.323 119.367 227.328 119.367 227.333C119.367 227.338 119.367 227.342 119.367 227.347C119.367 227.352 119.367 227.357 119.367 227.362C119.367 227.367 119.367 227.372 119.367 227.377C119.367 227.382 119.367 227.387 119.367 227.392C119.367 227.397 119.367 227.403 119.367 227.408C119.367 227.413 119.367 227.418 119.367 227.423C119.367 227.428 119.367 227.433 119.367 227.438C119.367 227.443 119.367 227.448 119.367 227.453C119.367 227.458 119.367 227.464 119.367 227.469C119.367 227.474 119.367 227.479 119.367 227.484C119.367 227.489 119.367 227.494 119.367 227.5C119.367 227.505 119.367 227.51 119.367 227.515C119.367 227.52 119.367 227.525 119.367 227.531C119.367 227.536 119.367 227.541 119.367 227.546C119.367 227.552 119.367 227.557 119.367 227.562C119.367 227.567 119.367 227.573 119.367 227.578C119.367 227.583 119.367 227.588 119.367 227.594C119.367 227.599 119.367 227.604 119.367 227.61C119.367 227.615 119.367 227.62 119.367 227.625C119.367 227.631 119.367 227.636 119.367 227.641C119.367 227.647 119.367 227.652 119.367 227.658C119.367 227.663 119.367 227.668 119.367 227.674C119.367 227.679 119.367 227.684 119.367 227.69C119.367 227.695 119.367 227.701 119.367 227.706C119.367 227.711 119.367 227.717 119.367 227.722C119.367 227.728 119.367 227.733 119.367 227.739C119.367 227.744 119.367 227.749 119.367 227.755C119.367 227.76 119.367 227.766 119.367 227.771C119.367 227.777 119.367 227.782 119.367 227.788C119.367 227.793 119.367 227.799 119.367 227.804C119.367 227.81 119.367 227.815 119.367 227.821C119.367 227.827 119.367 227.832 119.367 227.838C119.367 227.843 119.367 227.849 119.367 227.854C119.367 227.86 119.367 227.865 119.367 227.871C119.367 227.877 119.367 227.882 119.367 227.888C119.367 227.893 119.367 227.899 119.367 227.905C119.367 227.91 119.367 227.916 119.367 227.922C119.367 227.927 119.367 227.933 119.367 227.938C119.367 227.944 119.367 227.95 119.367 227.955C119.367 227.961 119.367 227.967 119.367 227.973C119.367 227.978 119.367 227.984 119.367 227.99C119.367 227.995 119.367 228.001 119.367 228.007C119.367 228.012 119.367 228.018 119.367 228.024C119.367 228.03 119.367 228.035 119.367 228.041C119.367 228.047 119.367 228.053 119.367 228.058C119.367 228.064 119.367 228.07 119.367 228.076C119.367 228.082 119.367 228.087 119.367 228.093C119.367 228.099 119.367 228.105 119.367 228.111C119.367 228.116 119.367 228.122 119.367 228.128C119.367 228.134 119.367 228.14 119.367 228.145C119.367 228.151 119.367 228.157 119.367 228.163C119.367 228.169 119.367 228.175 119.367 228.181C119.367 228.187 119.367 228.192 119.367 228.198C119.367 228.204 119.367 228.21 119.367 228.216C119.367 228.222 119.367 228.228 119.367 228.234C119.367 228.24 119.367 228.246 119.367 228.251C119.367 228.257 119.367 228.263 119.367 228.269C119.367 228.275 119.367 228.281 119.367 228.287C119.367 228.293 119.367 228.299 119.367 228.305C119.367 228.311 119.367 228.317 119.367 228.323C119.367 228.329 119.367 228.335 119.367 228.341C119.367 228.347 119.367 228.353 119.367 228.359C119.367 228.365 119.367 228.371 119.367 228.377C119.367 228.383 119.367 228.389 119.367 228.395C119.367 228.401 119.367 228.407 119.367 228.413C119.367 228.419 119.367 228.425 119.367 228.431C119.367 228.438 119.367 228.444 119.367 228.45C119.367 228.456 119.367 228.462 119.367 228.468C119.367 228.474 119.367 228.48 119.367 228.486C119.367 228.492 119.367 228.498 119.367 228.505C119.367 228.511 119.367 228.517 119.367 228.523C119.367 228.529 119.367 228.535 119.367 228.541C119.367 228.548 119.367 228.554 119.367 228.56C119.367 228.566 119.367 228.572 119.367 228.578C119.367 228.585 119.367 228.591 119.367 228.597C119.367 228.603 119.367 228.609 119.367 228.615C119.367 228.622 119.367 228.628 119.367 228.634C119.367 228.64 119.367 228.646 119.367 228.653C119.367 228.659 119.367 228.665 119.367 228.671C119.367 228.678 119.367 228.684 119.367 228.69C119.367 228.696 119.367 228.703 119.367 228.709C119.367 228.715 119.367 228.721 119.367 228.728C119.367 228.734 119.367 228.74 119.367 228.746C119.367 228.753 119.367 228.759 119.367 228.765C119.367 228.772 119.367 228.778 119.367 228.784C119.367 228.79 119.367 228.797 119.367 228.803C119.367 228.809 119.367 228.816 119.367 228.822C119.367 228.828 119.367 228.835 119.367 228.841C119.367 228.847 119.367 228.854 119.367 228.86C119.367 228.866 119.367 228.873 119.367 228.879C119.367 228.885 119.367 228.892 119.367 228.898C119.367 228.904 119.367 228.911 119.367 228.917C119.367 228.924 119.367 228.93 119.367 228.936C119.367 228.943 119.367 228.949 119.367 228.956C119.367 228.962 119.367 228.968 119.367 228.975C119.367 228.981 119.367 228.988 119.367 228.994C119.367 229 119.367 229.007 119.367 229.013C119.367 229.02 119.367 229.026 119.367 229.032C119.367 229.039 119.367 229.045 119.367 229.052C119.367 229.058 119.367 229.065 119.367 229.071C119.367 229.078 119.367 229.084 119.367 229.09C119.367 229.097 119.367 229.103 119.367 229.11C119.367 229.116 119.367 229.123 119.367 229.129C119.367 229.136 119.367 229.142 119.367 229.149C119.367 229.155 119.367 229.162 119.367 229.168C119.367 229.175 119.367 229.181 119.367 229.188C119.367 229.194 119.367 229.201 119.367 229.207C119.367 229.214 119.367 229.22 119.367 229.227C119.367 229.233 119.367 229.24 119.367 229.246C119.367 229.253 119.367 229.259 119.367 229.266C119.367 229.273 119.367 229.279 119.367 229.286C119.367 229.292 119.367 229.299 119.367 229.305C119.367 229.312 119.367 229.318 119.367 229.325C119.367 229.331 119.367 229.338 119.367 229.345C119.367 229.351 119.367 229.358 119.367 229.364C119.367 229.371 119.367 229.377 119.367 229.384C119.367 229.391 119.367 229.397 119.367 229.404C119.367 229.41 119.367 229.417 119.367 229.424C119.367 229.43 119.367 229.437 119.367 229.443C119.367 229.45 119.367 229.457 119.367 229.463C119.367 229.47 119.367 229.477 119.367 229.483C119.367 229.49 119.367 229.496 119.367 229.503C119.367 229.51 119.367 229.516 119.367 229.523C119.367 229.53 119.367 229.536 119.367 229.543C119.367 229.549 119.367 229.556 119.367 229.563C119.367 229.569 119.367 229.576 119.367 229.583C119.367 229.589 119.367 229.596 119.367 229.603C119.367 229.609 119.367 229.616 119.367 229.623C119.367 229.629 119.367 229.636 119.367 229.643C119.367 229.649 119.367 229.656 119.367 229.663C119.367 229.669 119.367 229.676 119.367 229.683C119.367 229.689 119.367 229.696 119.367 229.703C119.367 229.709 119.367 229.716 119.367 229.723C119.367 229.73 119.367 229.736 119.367 229.743C119.367 229.75 119.367 229.756 119.367 229.763C119.367 229.77 119.367 229.776 119.367 229.783C119.367 229.79 119.367 229.797 119.367 229.803C119.367 229.81 119.367 229.817 119.367 229.823C119.367 229.83 119.367 229.837 119.367 229.844C119.367 229.85 119.367 229.857 119.367 229.864C119.367 229.871 119.367 229.877 119.367 229.884C119.367 229.891 119.367 229.898 119.367 229.904C119.367 229.911 119.367 229.918 119.367 229.924C119.367 229.931 119.367 229.938 119.367 229.945C119.367 229.951 119.367 229.958 119.367 229.965C119.367 229.972 119.367 229.978 119.367 229.985C119.367 229.992 119.367 229.999 119.367 230.006C119.367 230.012 119.367 230.019 119.367 230.026C119.367 230.033 119.367 230.039 119.367 230.046C119.367 230.053 119.367 230.06 119.367 230.066C119.367 230.073 119.367 230.08 119.367 230.087C119.367 230.094 119.367 230.1 119.367 230.107C119.367 230.114 119.367 230.121 119.367 230.127C119.367 230.134 119.367 230.141 119.367 230.148C119.367 230.155 119.367 230.161 119.367 230.168C119.367 230.175 119.367 230.182 119.367 230.188C119.367 230.195 119.367 230.202 119.367 230.209C119.367 230.216 119.367 230.222 119.367 230.229C119.367 230.236 119.367 230.243 119.367 230.25C119.367 230.256 119.367 230.263 119.367 230.27C119.367 230.277 119.367 230.284 119.367 230.29C119.367 230.297 119.367 230.304 119.367 230.311C119.367 230.318 119.367 230.325 119.367 230.331C119.367 230.338 119.367 230.345 119.367 230.352C119.367 230.359 119.367 230.365 119.367 230.372C119.367 230.379 119.367 230.386 119.367 230.393C119.367 230.399 119.367 230.406 119.367 230.413C119.367 230.42 119.367 230.427 119.367 230.434C119.367 230.44 119.367 230.447 119.367 230.454C119.367 230.461 119.367 230.468 119.367 230.474C119.367 230.481 119.367 230.488 119.367 230.495C119.367 230.502 119.367 230.509 119.367 230.515C119.367 230.522 119.367 230.529 119.367 230.536C119.367 230.543 119.367 230.549 119.367 230.556C119.367 230.563 119.367 230.57 119.367 230.577C119.367 230.584 119.367 230.59 119.367 230.597C119.367 230.604 119.367 230.611 119.367 230.618C119.367 230.625 119.367 230.631 119.367 230.638C119.367 230.645 119.367 230.652 119.367 230.659C119.367 230.666 119.367 230.672 119.367 230.679C119.367 230.686 119.367 230.693 119.367 230.7C119.367 230.706 119.367 230.713 119.367 230.72C119.367 230.727 119.367 230.734 119.367 230.741C119.367 230.747 119.367 230.754 119.367 230.761C119.367 230.768 119.367 230.775 119.367 230.782C119.367 230.788 119.367 230.795 119.367 230.802C119.367 230.809 119.367 230.816 119.367 230.823C119.367 230.829 119.367 230.836 119.367 230.843C119.367 230.85 119.367 230.857 119.367 230.863C119.367 230.87 119.367 230.877 119.367 230.884C119.367 230.891 119.367 230.898 119.367 230.904C119.367 230.911 119.367 230.918 119.367 230.925C119.367 230.932 119.367 230.939 119.367 230.945C119.367 230.952 119.367 230.959 119.367 230.966C119.367 230.973 119.367 230.979 119.367 230.986C119.367 230.993 119.367 231 119.367 231.007C119.367 231.013 119.367 231.02 119.367 231.027C119.367 231.034 119.367 231.041 119.367 231.048C119.367 231.054 119.367 231.061 119.367 231.068C119.367 231.075 119.367 231.082 119.367 231.088C119.367 231.095 119.367 231.102 119.367 231.109C119.367 231.116 119.367 231.122 119.367 231.129C119.367 231.136 119.367 231.143 119.367 231.15C119.367 231.156 119.367 231.163 119.367 231.17C119.367 231.177 119.367 231.184 119.367 231.19C119.367 231.197 119.367 231.204 119.367 231.211C119.367 231.218 119.367 231.224 119.367 231.231C119.367 231.238 119.367 231.245 119.367 231.252C119.367 231.258 119.367 231.265 119.367 231.272C119.367 231.279 119.367 231.285 119.367 231.292C119.367 231.299 119.367 231.306 119.367 231.313C119.367 231.319 119.367 231.326 119.367 231.333C119.367 231.34 119.367 231.346 119.367 231.353C119.367 231.36 119.367 231.367 119.367 231.373C119.367 231.38 119.367 231.387 119.367 231.394C119.367 231.401 119.367 231.407 119.367 231.414C119.367 231.421 119.367 231.428 119.367 231.434C119.367 231.441 119.367 231.448 119.367 231.455C119.367 231.461 119.367 231.468 119.367 231.475C119.367 231.482 119.367 231.488 119.367 231.495C119.367 231.502 119.367 231.509 119.367 231.515C119.367 231.522 119.367 231.529 119.367 231.535C119.367 231.542 119.367 231.549 119.367 231.556C119.367 231.562 119.367 231.569 119.367 231.576C119.367 231.583 119.367 231.589 119.367 231.596C119.367 231.603 119.367 231.609 119.367 231.616C119.367 231.623 119.367 231.63 119.367 231.636C119.367 231.643 119.367 231.65 119.367 231.656C119.367 231.663 119.367 231.67 119.367 231.676C119.367 231.683 119.367 231.69 119.367 231.697C119.367 231.703 119.367 231.71 119.367 231.717C119.367 231.723 119.367 231.73 119.367 231.737C119.367 231.743 119.367 231.75 119.367 231.757C119.367 231.763 119.367 231.77 119.367 231.777C119.367 231.783 119.367 231.79 119.367 231.797C119.367 231.803 119.367 231.81 119.367 231.817C119.367 231.823 119.367 231.83 119.367 231.837C119.367 231.843 119.367 231.85 119.367 231.856C119.367 231.863 119.367 231.87 119.367 231.876C119.367 231.883 119.367 231.89 119.367 231.896C119.367 231.903 119.367 231.91 119.367 231.916C119.367 231.923 119.367 231.929 119.367 231.936C119.367 231.943 119.367 231.949 119.367 231.956C119.367 231.962 119.367 231.969 119.367 231.976C119.367 231.982 119.367 231.989 119.367 231.995C119.367 232.002 119.367 232.009 119.367 232.015C119.367 232.022 119.367 232.028 119.367 232.035C119.367 232.042 119.367 232.048 119.367 232.055C119.367 232.061 119.367 232.068 119.367 232.074C119.367 232.081 119.367 232.087 119.367 232.094C119.367 232.101 119.367 232.107 119.367 232.114C119.367 232.12 119.367 232.127 119.367 232.133C119.367 232.14 119.367 232.146 119.367 232.153C119.367 232.159 119.367 232.166 119.367 232.173C119.367 232.179 119.367 232.186 119.367 232.192C119.367 232.199 119.367 232.205 119.367 232.212C119.367 232.218 119.367 232.225 119.367 232.231C119.367 232.238 119.367 232.244 119.367 232.251C119.367 232.257 119.367 232.264 119.367 232.27C119.367 232.276 119.367 232.283 119.367 232.289C119.367 232.296 119.367 232.302 119.367 232.309C119.367 232.315 119.367 232.322 119.367 232.328C119.367 232.335 119.367 232.341 119.367 232.348C119.367 232.354 119.367 232.36 119.367 232.367C119.367 232.373 119.367 232.38 119.367 232.386C119.367 232.393 119.367 232.399 119.367 232.405C119.367 232.412 119.367 232.418 119.367 232.425C119.367 232.431 119.367 232.437 119.367 232.444C119.367 232.45 119.367 232.457 119.367 232.463C119.367 232.469 119.367 232.476 119.367 232.482C119.367 232.488 119.367 232.495 119.367 232.501C119.367 232.508 119.367 232.514 119.367 232.52C119.367 232.527 119.367 232.533 119.367 232.539C119.367 232.546 119.367 232.552 119.367 232.558C119.367 232.565 119.367 232.571 119.367 232.577C119.367 232.584 119.367 232.59 119.367 232.596C119.367 232.603 119.367 232.609 119.367 232.615C119.367 232.621 119.367 232.628 119.367 232.634C119.367 232.64 119.367 232.647 119.367 232.653C119.367 232.659 119.367 232.665 119.367 232.672C119.367 232.678 119.367 232.684 119.367 232.69C119.367 232.697 119.367 232.703 119.367 232.709C119.367 232.715 119.367 232.722 119.367 232.728C119.367 232.734 119.367 232.74 119.367 232.747C119.367 232.753 119.367 232.759 119.367 232.765C119.367 232.771 119.367 232.778 119.367 232.784C119.367 232.79 119.367 232.796 119.367 232.802C119.367 232.809 119.367 232.815 119.367 232.821C119.367 232.827 119.367 232.833 119.367 232.839C119.367 232.846 119.367 232.852 119.367 232.858C119.367 232.864 119.367 232.87 119.367 232.876C119.367 232.882 119.367 232.889 119.367 232.895C119.367 232.901 119.367 232.907 119.367 232.913C119.367 232.919 119.367 232.925 119.367 232.931C119.367 232.937 119.367 232.943 119.367 232.95C119.367 232.956 119.367 232.962 119.367 232.968C119.367 232.974 119.367 232.98 119.367 232.986C119.367 232.992 119.367 232.998 119.367 233.004C119.367 233.01 119.367 233.016 119.367 233.022C119.367 233.028 119.367 233.034 119.367 233.04C119.367 233.046 119.367 233.052 119.367 233.058C119.367 233.064 119.367 233.07 119.367 233.076C119.367 233.082 119.367 233.088 119.367 233.094C119.367 233.1 119.367 233.106 119.367 233.112C119.367 233.118 119.367 233.124 119.367 233.13C119.367 233.136 119.367 233.142 119.367 233.148C119.367 233.154 119.367 233.16 119.367 233.166C119.367 233.172 119.367 233.177 119.367 233.183C119.367 233.189 119.367 233.195 119.367 233.201C119.367 233.207 119.367 233.213 119.367 233.219C119.367 233.225 119.367 233.23 119.367 233.236C119.367 233.242 119.367 233.248 119.367 233.254C119.367 233.26 119.367 233.265 119.367 233.271C119.367 233.277 119.367 233.283 119.367 233.289C119.367 233.295 119.367 233.3 119.367 233.306C119.367 233.312 119.367 233.318 119.367 233.324C119.367 233.329 119.367 233.335 119.367 233.341C119.367 233.347 119.367 233.352 119.367 233.358C119.367 233.364 119.367 233.37 119.367 233.375C119.367 233.381 119.367 233.387 119.367 233.393C119.367 233.398 119.367 233.404 119.367 233.41C119.367 233.415 119.367 233.421 119.367 233.427C119.367 233.432 119.367 233.438 119.367 233.444C119.367 233.449 119.367 233.455 119.367 233.461C119.367 233.466 119.367 233.472 119.367 233.478C119.367 233.483 119.367 233.489 119.367 233.495C119.367 233.5 119.367 233.506 119.367 233.511C119.367 233.517 119.367 233.523 119.367 233.528C119.367 233.534 119.367 233.539 119.367 233.545C119.367 233.551 119.367 233.556 119.367 233.562C119.367 233.567 119.367 233.573 119.367 233.578C119.367 233.584 119.367 233.589 119.367 233.595C119.367 233.6 119.367 233.606 119.367 233.611C119.367 233.617 119.367 233.622 119.367 233.628C119.367 233.633 119.367 233.639 119.367 233.644C119.367 233.65 119.367 233.655 119.367 233.661C119.367 233.666 119.367 233.672 119.367 233.677C119.367 233.682 119.367 233.688 119.367 233.693C119.367 233.699 119.367 233.704 119.367 233.71C119.367 233.715 119.367 233.72 119.367 233.726C119.367 233.731 119.367 233.736 119.367 233.742C119.367 233.747 119.367 233.752 119.367 233.758C119.367 233.763 119.367 233.768 119.367 233.774C119.367 233.779 119.367 233.784 119.367 233.79C119.367 233.795 119.367 233.8 119.367 233.806C119.367 233.811 119.367 233.816 119.367 233.821C119.367 233.827 119.367 233.832 119.367 233.837C119.367 233.842 119.367 233.848 119.367 233.853H121.367C121.367 233.848 121.367 233.842 121.367 233.837C121.367 233.832 121.367 233.827 121.367 233.821C121.367 233.816 121.367 233.811 121.367 233.806C121.367 233.8 121.367 233.795 121.367 233.79C121.367 233.784 121.367 233.779 121.367 233.774C121.367 233.768 121.367 233.763 121.367 233.758C121.367 233.752 121.367 233.747 121.367 233.742C121.367 233.736 121.367 233.731 121.367 233.726C121.367 233.72 121.367 233.715 121.367 233.71C121.367 233.704 121.367 233.699 121.367 233.693C121.367 233.688 121.367 233.682 121.367 233.677C121.367 233.672 121.367 233.666 121.367 233.661C121.367 233.655 121.367 233.65 121.367 233.644C121.367 233.639 121.367 233.633 121.367 233.628C121.367 233.622 121.367 233.617 121.367 233.611C121.367 233.606 121.367 233.6 121.367 233.595C121.367 233.589 121.367 233.584 121.367 233.578C121.367 233.573 121.367 233.567 121.367 233.562C121.367 233.556 121.367 233.551 121.367 233.545C121.367 233.539 121.367 233.534 121.367 233.528C121.367 233.523 121.367 233.517 121.367 233.511C121.367 233.506 121.367 233.5 121.367 233.495C121.367 233.489 121.367 233.483 121.367 233.478C121.367 233.472 121.367 233.466 121.367 233.461C121.367 233.455 121.367 233.449 121.367 233.444C121.367 233.438 121.367 233.432 121.367 233.427C121.367 233.421 121.367 233.415 121.367 233.41C121.367 233.404 121.367 233.398 121.367 233.393C121.367 233.387 121.367 233.381 121.367 233.375C121.367 233.37 121.367 233.364 121.367 233.358C121.367 233.352 121.367 233.347 121.367 233.341C121.367 233.335 121.367 233.329 121.367 233.324C121.367 233.318 121.367 233.312 121.367 233.306C121.367 233.3 121.367 233.295 121.367 233.289C121.367 233.283 121.367 233.277 121.367 233.271C121.367 233.265 121.367 233.26 121.367 233.254C121.367 233.248 121.367 233.242 121.367 233.236C121.367 233.23 121.367 233.225 121.367 233.219C121.367 233.213 121.367 233.207 121.367 233.201C121.367 233.195 121.367 233.189 121.367 233.183C121.367 233.177 121.367 233.172 121.367 233.166C121.367 233.16 121.367 233.154 121.367 233.148C121.367 233.142 121.367 233.136 121.367 233.13C121.367 233.124 121.367 233.118 121.367 233.112C121.367 233.106 121.367 233.1 121.367 233.094C121.367 233.088 121.367 233.082 121.367 233.076C121.367 233.07 121.367 233.064 121.367 233.058C121.367 233.052 121.367 233.046 121.367 233.04C121.367 233.034 121.367 233.028 121.367 233.022C121.367 233.016 121.367 233.01 121.367 233.004C121.367 232.998 121.367 232.992 121.367 232.986C121.367 232.98 121.367 232.974 121.367 232.968C121.367 232.962 121.367 232.956 121.367 232.95C121.367 232.943 121.367 232.937 121.367 232.931C121.367 232.925 121.367 232.919 121.367 232.913C121.367 232.907 121.367 232.901 121.367 232.895C121.367 232.889 121.367 232.882 121.367 232.876C121.367 232.87 121.367 232.864 121.367 232.858C121.367 232.852 121.367 232.846 121.367 232.839C121.367 232.833 121.367 232.827 121.367 232.821C121.367 232.815 121.367 232.809 121.367 232.802C121.367 232.796 121.367 232.79 121.367 232.784C121.367 232.778 121.367 232.771 121.367 232.765C121.367 232.759 121.367 232.753 121.367 232.747C121.367 232.74 121.367 232.734 121.367 232.728C121.367 232.722 121.367 232.715 121.367 232.709C121.367 232.703 121.367 232.697 121.367 232.69C121.367 232.684 121.367 232.678 121.367 232.672C121.367 232.665 121.367 232.659 121.367 232.653C121.367 232.647 121.367 232.64 121.367 232.634C121.367 232.628 121.367 232.621 121.367 232.615C121.367 232.609 121.367 232.603 121.367 232.596C121.367 232.59 121.367 232.584 121.367 232.577C121.367 232.571 121.367 232.565 121.367 232.558C121.367 232.552 121.367 232.546 121.367 232.539C121.367 232.533 121.367 232.527 121.367 232.52C121.367 232.514 121.367 232.508 121.367 232.501C121.367 232.495 121.367 232.488 121.367 232.482C121.367 232.476 121.367 232.469 121.367 232.463C121.367 232.457 121.367 232.45 121.367 232.444C121.367 232.437 121.367 232.431 121.367 232.425C121.367 232.418 121.367 232.412 121.367 232.405C121.367 232.399 121.367 232.393 121.367 232.386C121.367 232.38 121.367 232.373 121.367 232.367C121.367 232.36 121.367 232.354 121.367 232.348C121.367 232.341 121.367 232.335 121.367 232.328C121.367 232.322 121.367 232.315 121.367 232.309C121.367 232.302 121.367 232.296 121.367 232.289C121.367 232.283 121.367 232.276 121.367 232.27C121.367 232.264 121.367 232.257 121.367 232.251C121.367 232.244 121.367 232.238 121.367 232.231C121.367 232.225 121.367 232.218 121.367 232.212C121.367 232.205 121.367 232.199 121.367 232.192C121.367 232.186 121.367 232.179 121.367 232.173C121.367 232.166 121.367 232.159 121.367 232.153C121.367 232.146 121.367 232.14 121.367 232.133C121.367 232.127 121.367 232.12 121.367 232.114C121.367 232.107 121.367 232.101 121.367 232.094C121.367 232.087 121.367 232.081 121.367 232.074C121.367 232.068 121.367 232.061 121.367 232.055C121.367 232.048 121.367 232.042 121.367 232.035C121.367 232.028 121.367 232.022 121.367 232.015C121.367 232.009 121.367 232.002 121.367 231.995C121.367 231.989 121.367 231.982 121.367 231.976C121.367 231.969 121.367 231.962 121.367 231.956C121.367 231.949 121.367 231.943 121.367 231.936C121.367 231.929 121.367 231.923 121.367 231.916C121.367 231.91 121.367 231.903 121.367 231.896C121.367 231.89 121.367 231.883 121.367 231.876C121.367 231.87 121.367 231.863 121.367 231.856C121.367 231.85 121.367 231.843 121.367 231.837C121.367 231.83 121.367 231.823 121.367 231.817C121.367 231.81 121.367 231.803 121.367 231.797C121.367 231.79 121.367 231.783 121.367 231.777C121.367 231.77 121.367 231.763 121.367 231.757C121.367 231.75 121.367 231.743 121.367 231.737C121.367 231.73 121.367 231.723 121.367 231.717C121.367 231.71 121.367 231.703 121.367 231.697C121.367 231.69 121.367 231.683 121.367 231.676C121.367 231.67 121.367 231.663 121.367 231.656C121.367 231.65 121.367 231.643 121.367 231.636C121.367 231.63 121.367 231.623 121.367 231.616C121.367 231.609 121.367 231.603 121.367 231.596C121.367 231.589 121.367 231.583 121.367 231.576C121.367 231.569 121.367 231.562 121.367 231.556C121.367 231.549 121.367 231.542 121.367 231.535C121.367 231.529 121.367 231.522 121.367 231.515C121.367 231.509 121.367 231.502 121.367 231.495C121.367 231.488 121.367 231.482 121.367 231.475C121.367 231.468 121.367 231.461 121.367 231.455C121.367 231.448 121.367 231.441 121.367 231.434C121.367 231.428 121.367 231.421 121.367 231.414C121.367 231.407 121.367 231.401 121.367 231.394C121.367 231.387 121.367 231.38 121.367 231.373C121.367 231.367 121.367 231.36 121.367 231.353C121.367 231.346 121.367 231.34 121.367 231.333C121.367 231.326 121.367 231.319 121.367 231.313C121.367 231.306 121.367 231.299 121.367 231.292C121.367 231.285 121.367 231.279 121.367 231.272C121.367 231.265 121.367 231.258 121.367 231.252C121.367 231.245 121.367 231.238 121.367 231.231C121.367 231.224 121.367 231.218 121.367 231.211C121.367 231.204 121.367 231.197 121.367 231.19C121.367 231.184 121.367 231.177 121.367 231.17C121.367 231.163 121.367 231.156 121.367 231.15C121.367 231.143 121.367 231.136 121.367 231.129C121.367 231.122 121.367 231.116 121.367 231.109C121.367 231.102 121.367 231.095 121.367 231.088C121.367 231.082 121.367 231.075 121.367 231.068C121.367 231.061 121.367 231.054 121.367 231.048C121.367 231.041 121.367 231.034 121.367 231.027C121.367 231.02 121.367 231.013 121.367 231.007C121.367 231 121.367 230.993 121.367 230.986C121.367 230.979 121.367 230.973 121.367 230.966C121.367 230.959 121.367 230.952 121.367 230.945C121.367 230.939 121.367 230.932 121.367 230.925C121.367 230.918 121.367 230.911 121.367 230.904C121.367 230.898 121.367 230.891 121.367 230.884C121.367 230.877 121.367 230.87 121.367 230.863C121.367 230.857 121.367 230.85 121.367 230.843C121.367 230.836 121.367 230.829 121.367 230.823C121.367 230.816 121.367 230.809 121.367 230.802C121.367 230.795 121.367 230.788 121.367 230.782C121.367 230.775 121.367 230.768 121.367 230.761C121.367 230.754 121.367 230.747 121.367 230.741C121.367 230.734 121.367 230.727 121.367 230.72C121.367 230.713 121.367 230.706 121.367 230.7C121.367 230.693 121.367 230.686 121.367 230.679C121.367 230.672 121.367 230.666 121.367 230.659C121.367 230.652 121.367 230.645 121.367 230.638C121.367 230.631 121.367 230.625 121.367 230.618C121.367 230.611 121.367 230.604 121.367 230.597C121.367 230.59 121.367 230.584 121.367 230.577C121.367 230.57 121.367 230.563 121.367 230.556C121.367 230.549 121.367 230.543 121.367 230.536C121.367 230.529 121.367 230.522 121.367 230.515C121.367 230.509 121.367 230.502 121.367 230.495C121.367 230.488 121.367 230.481 121.367 230.474C121.367 230.468 121.367 230.461 121.367 230.454C121.367 230.447 121.367 230.44 121.367 230.434C121.367 230.427 121.367 230.42 121.367 230.413C121.367 230.406 121.367 230.399 121.367 230.393C121.367 230.386 121.367 230.379 121.367 230.372C121.367 230.365 121.367 230.359 121.367 230.352C121.367 230.345 121.367 230.338 121.367 230.331C121.367 230.325 121.367 230.318 121.367 230.311C121.367 230.304 121.367 230.297 121.367 230.29C121.367 230.284 121.367 230.277 121.367 230.27C121.367 230.263 121.367 230.256 121.367 230.25C121.367 230.243 121.367 230.236 121.367 230.229C121.367 230.222 121.367 230.216 121.367 230.209C121.367 230.202 121.367 230.195 121.367 230.188C121.367 230.182 121.367 230.175 121.367 230.168C121.367 230.161 121.367 230.155 121.367 230.148C121.367 230.141 121.367 230.134 121.367 230.127C121.367 230.121 121.367 230.114 121.367 230.107C121.367 230.1 121.367 230.094 121.367 230.087C121.367 230.08 121.367 230.073 121.367 230.066C121.367 230.06 121.367 230.053 121.367 230.046C121.367 230.039 121.367 230.033 121.367 230.026C121.367 230.019 121.367 230.012 121.367 230.006C121.367 229.999 121.367 229.992 121.367 229.985C121.367 229.978 121.367 229.972 121.367 229.965C121.367 229.958 121.367 229.951 121.367 229.945C121.367 229.938 121.367 229.931 121.367 229.924C121.367 229.918 121.367 229.911 121.367 229.904C121.367 229.898 121.367 229.891 121.367 229.884C121.367 229.877 121.367 229.871 121.367 229.864C121.367 229.857 121.367 229.85 121.367 229.844C121.367 229.837 121.367 229.83 121.367 229.823C121.367 229.817 121.367 229.81 121.367 229.803C121.367 229.797 121.367 229.79 121.367 229.783C121.367 229.776 121.367 229.77 121.367 229.763C121.367 229.756 121.367 229.75 121.367 229.743C121.367 229.736 121.367 229.73 121.367 229.723C121.367 229.716 121.367 229.709 121.367 229.703C121.367 229.696 121.367 229.689 121.367 229.683C121.367 229.676 121.367 229.669 121.367 229.663C121.367 229.656 121.367 229.649 121.367 229.643C121.367 229.636 121.367 229.629 121.367 229.623C121.367 229.616 121.367 229.609 121.367 229.603C121.367 229.596 121.367 229.589 121.367 229.583C121.367 229.576 121.367 229.569 121.367 229.563C121.367 229.556 121.367 229.549 121.367 229.543C121.367 229.536 121.367 229.53 121.367 229.523C121.367 229.516 121.367 229.51 121.367 229.503C121.367 229.496 121.367 229.49 121.367 229.483C121.367 229.477 121.367 229.47 121.367 229.463C121.367 229.457 121.367 229.45 121.367 229.443C121.367 229.437 121.367 229.43 121.367 229.424C121.367 229.417 121.367 229.41 121.367 229.404C121.367 229.397 121.367 229.391 121.367 229.384C121.367 229.377 121.367 229.371 121.367 229.364C121.367 229.358 121.367 229.351 121.367 229.345C121.367 229.338 121.367 229.331 121.367 229.325C121.367 229.318 121.367 229.312 121.367 229.305C121.367 229.299 121.367 229.292 121.367 229.286C121.367 229.279 121.367 229.273 121.367 229.266C121.367 229.259 121.367 229.253 121.367 229.246C121.367 229.24 121.367 229.233 121.367 229.227C121.367 229.22 121.367 229.214 121.367 229.207C121.367 229.201 121.367 229.194 121.367 229.188C121.367 229.181 121.367 229.175 121.367 229.168C121.367 229.162 121.367 229.155 121.367 229.149C121.367 229.142 121.367 229.136 121.367 229.129C121.367 229.123 121.367 229.116 121.367 229.11C121.367 229.103 121.367 229.097 121.367 229.09C121.367 229.084 121.367 229.078 121.367 229.071C121.367 229.065 121.367 229.058 121.367 229.052C121.367 229.045 121.367 229.039 121.367 229.032C121.367 229.026 121.367 229.02 121.367 229.013C121.367 229.007 121.367 229 121.367 228.994C121.367 228.988 121.367 228.981 121.367 228.975C121.367 228.968 121.367 228.962 121.367 228.956C121.367 228.949 121.367 228.943 121.367 228.936C121.367 228.93 121.367 228.924 121.367 228.917C121.367 228.911 121.367 228.904 121.367 228.898C121.367 228.892 121.367 228.885 121.367 228.879C121.367 228.873 121.367 228.866 121.367 228.86C121.367 228.854 121.367 228.847 121.367 228.841C121.367 228.835 121.367 228.828 121.367 228.822C121.367 228.816 121.367 228.809 121.367 228.803C121.367 228.797 121.367 228.79 121.367 228.784C121.367 228.778 121.367 228.772 121.367 228.765C121.367 228.759 121.367 228.753 121.367 228.746C121.367 228.74 121.367 228.734 121.367 228.728C121.367 228.721 121.367 228.715 121.367 228.709C121.367 228.703 121.367 228.696 121.367 228.69C121.367 228.684 121.367 228.678 121.367 228.671C121.367 228.665 121.367 228.659 121.367 228.653C121.367 228.646 121.367 228.64 121.367 228.634C121.367 228.628 121.367 228.622 121.367 228.615C121.367 228.609 121.367 228.603 121.367 228.597C121.367 228.591 121.367 228.585 121.367 228.578C121.367 228.572 121.367 228.566 121.367 228.56C121.367 228.554 121.367 228.548 121.367 228.541C121.367 228.535 121.367 228.529 121.367 228.523C121.367 228.517 121.367 228.511 121.367 228.505C121.367 228.498 121.367 228.492 121.367 228.486C121.367 228.48 121.367 228.474 121.367 228.468C121.367 228.462 121.367 228.456 121.367 228.45C121.367 228.444 121.367 228.438 121.367 228.431C121.367 228.425 121.367 228.419 121.367 228.413C121.367 228.407 121.367 228.401 121.367 228.395C121.367 228.389 121.367 228.383 121.367 228.377C121.367 228.371 121.367 228.365 121.367 228.359C121.367 228.353 121.367 228.347 121.367 228.341C121.367 228.335 121.367 228.329 121.367 228.323C121.367 228.317 121.367 228.311 121.367 228.305C121.367 228.299 121.367 228.293 121.367 228.287C121.367 228.281 121.367 228.275 121.367 228.269C121.367 228.263 121.367 228.257 121.367 228.251C121.367 228.246 121.367 228.24 121.367 228.234C121.367 228.228 121.367 228.222 121.367 228.216C121.367 228.21 121.367 228.204 121.367 228.198C121.367 228.192 121.367 228.187 121.367 228.181C121.367 228.175 121.367 228.169 121.367 228.163C121.367 228.157 121.367 228.151 121.367 228.145C121.367 228.14 121.367 228.134 121.367 228.128C121.367 228.122 121.367 228.116 121.367 228.111C121.367 228.105 121.367 228.099 121.367 228.093C121.367 228.087 121.367 228.082 121.367 228.076C121.367 228.07 121.367 228.064 121.367 228.058C121.367 228.053 121.367 228.047 121.367 228.041C121.367 228.035 121.367 228.03 121.367 228.024C121.367 228.018 121.367 228.012 121.367 228.007C121.367 228.001 121.367 227.995 121.367 227.99C121.367 227.984 121.367 227.978 121.367 227.973C121.367 227.967 121.367 227.961 121.367 227.955C121.367 227.95 121.367 227.944 121.367 227.938C121.367 227.933 121.367 227.927 121.367 227.922C121.367 227.916 121.367 227.91 121.367 227.905C121.367 227.899 121.367 227.893 121.367 227.888C121.367 227.882 121.367 227.877 121.367 227.871C121.367 227.865 121.367 227.86 121.367 227.854C121.367 227.849 121.367 227.843 121.367 227.838C121.367 227.832 121.367 227.827 121.367 227.821C121.367 227.815 121.367 227.81 121.367 227.804C121.367 227.799 121.367 227.793 121.367 227.788C121.367 227.782 121.367 227.777 121.367 227.771C121.367 227.766 121.367 227.76 121.367 227.755C121.367 227.749 121.367 227.744 121.367 227.739C121.367 227.733 121.367 227.728 121.367 227.722C121.367 227.717 121.367 227.711 121.367 227.706C121.367 227.701 121.367 227.695 121.367 227.69C121.367 227.684 121.367 227.679 121.367 227.674C121.367 227.668 121.367 227.663 121.367 227.658C121.367 227.652 121.367 227.647 121.367 227.641C121.367 227.636 121.367 227.631 121.367 227.625C121.367 227.62 121.367 227.615 121.367 227.61C121.367 227.604 121.367 227.599 121.367 227.594C121.367 227.588 121.367 227.583 121.367 227.578C121.367 227.573 121.367 227.567 121.367 227.562C121.367 227.557 121.367 227.552 121.367 227.546C121.367 227.541 121.367 227.536 121.367 227.531C121.367 227.525 121.367 227.52 121.367 227.515C121.367 227.51 121.367 227.505 121.367 227.5C121.367 227.494 121.367 227.489 121.367 227.484C121.367 227.479 121.367 227.474 121.367 227.469C121.367 227.464 121.367 227.458 121.367 227.453C121.367 227.448 121.367 227.443 121.367 227.438C121.367 227.433 121.367 227.428 121.367 227.423C121.367 227.418 121.367 227.413 121.367 227.408C121.367 227.403 121.367 227.397 121.367 227.392C121.367 227.387 121.367 227.382 121.367 227.377C121.367 227.372 121.367 227.367 121.367 227.362C121.367 227.357 121.367 227.352 121.367 227.347C121.367 227.342 121.367 227.338 121.367 227.333C121.367 227.328 121.367 227.323 121.367 227.318C121.367 227.313 121.367 227.308 121.367 227.303C121.367 227.298 121.367 227.293 121.367 227.288C121.367 227.283 121.367 227.279 121.367 227.274C121.367 227.269 121.367 227.264 121.367 227.259C121.367 227.254 121.367 227.249 121.367 227.245C121.367 227.24 121.367 227.235 121.367 227.23C121.367 227.225 121.367 227.221 121.367 227.216C121.367 227.211 121.367 227.206 121.367 227.202C121.367 227.197 121.367 227.192 121.367 227.187C121.367 227.183 121.367 227.178 121.367 227.173C121.367 227.168 121.367 227.164 121.367 227.159C121.367 227.154 121.367 227.15 121.367 227.145C121.367 227.14 121.367 227.136 121.367 227.131C121.367 227.126 121.367 227.122 121.367 227.117C121.367 227.112 121.367 227.108 121.367 227.103C121.367 227.099 121.367 227.094 121.367 227.089C121.367 227.085 121.367 227.08 121.367 227.076C121.367 227.071 121.367 227.067 121.367 227.062C121.367 227.058 121.367 227.053 121.367 227.049C121.367 227.044 121.367 227.04 121.367 227.035C121.367 227.031 121.367 227.026 121.367 227.022C121.367 227.017 121.367 227.013 121.367 227.008C121.367 227.004 121.367 226.999 121.367 226.995C121.367 226.991 121.367 226.986 121.367 226.982C121.367 226.977 121.367 226.973 121.367 226.969C121.367 226.964 121.367 226.96 121.367 226.956C121.367 226.951 121.367 226.947 121.367 226.943C121.367 226.938 121.367 226.934 121.367 226.93C121.367 226.925 121.367 226.921 121.367 226.917C121.367 226.913 121.367 226.908 121.367 226.904C121.367 226.9 121.367 226.896 121.367 226.891C121.367 226.887 121.367 226.883 121.367 226.879C121.367 226.874 121.367 226.87 121.367 226.866C121.367 226.862 121.367 226.858 121.367 226.854C121.367 226.849 121.367 226.845 121.367 226.841C121.367 226.837 121.367 226.833 121.367 226.829C121.367 226.825 121.367 226.821 121.367 226.817C121.367 226.813 121.367 226.808 121.367 226.804C121.367 226.8 121.367 226.796 121.367 226.792C121.367 226.788 121.367 226.784 121.367 226.78C121.367 226.776 121.367 226.772 121.367 226.768C121.367 226.764 121.367 226.76 121.367 226.756C121.367 226.752 121.367 226.749 121.367 226.745C121.367 226.741 121.367 226.737 121.367 226.733C121.367 226.729 121.367 226.725 121.367 226.721C121.367 226.717 121.367 226.713 121.367 226.71C121.367 226.706 121.367 226.702 121.367 226.698C121.367 226.694 121.367 226.691 121.367 226.687C121.367 226.683 121.367 226.679 121.367 226.675C121.367 226.672 121.367 226.668 121.367 226.664C121.367 226.66 121.367 226.657 121.367 226.653C121.367 226.649 121.367 226.646 121.367 226.642C121.367 226.638 121.367 226.634 121.367 226.631C121.367 226.627 121.367 226.624 121.367 226.62C121.367 226.616 121.367 226.613 121.367 226.609C121.367 226.605 121.367 226.602 121.367 226.598C121.367 226.595 121.367 226.591 121.367 226.588C121.367 226.584 121.367 226.58 121.367 226.577C121.367 226.573 121.367 226.57 121.367 226.566C121.367 226.563 121.367 226.559 121.367 226.556C121.367 226.553 121.367 226.549 121.367 226.546C121.367 226.542 121.367 226.539 121.367 226.535C121.367 226.532 121.367 226.529 121.367 226.525C121.367 226.522 121.367 226.518 121.367 226.515C121.367 226.512 121.367 226.508 121.367 226.505C121.367 226.502 121.367 226.498 121.367 226.495C121.367 226.492 121.367 226.488 121.367 226.485C121.367 226.482 121.367 226.479 121.367 226.475C121.367 226.472 121.367 226.469 121.367 226.466C121.367 226.463 121.367 226.459 121.367 226.456C121.367 226.453 121.367 226.45 121.367 226.447C121.367 226.443 121.367 226.44 121.367 226.437C121.367 226.434 121.367 226.431 121.367 226.428C121.367 226.425 121.367 226.422 121.367 226.419C121.367 226.416 121.367 226.413 121.367 226.409C121.367 226.406 121.367 226.403 121.367 226.4C121.367 226.397 121.367 226.394 121.367 226.391C121.367 226.388 121.367 226.385 121.367 226.383C121.367 226.38 121.367 226.377 121.367 226.374C121.367 226.371 121.367 226.368 121.367 226.365C121.367 226.362 121.367 226.359 121.367 226.356C121.367 226.354 121.367 226.351 121.367 226.348C121.367 226.345 121.367 226.342 121.367 226.339C121.367 226.337 121.367 226.334 121.367 226.331C121.367 226.328 121.367 226.326 121.367 226.323C121.367 226.32 121.367 226.317 121.367 226.315C121.367 226.312 121.367 226.309 121.367 226.307C121.367 226.304 121.367 226.301 121.367 226.299C121.367 226.296 121.367 226.293 121.367 226.291C121.367 226.288 121.367 226.285 121.367 226.283C121.367 226.28 121.367 226.278 121.367 226.275C121.367 226.273 121.367 226.27 121.367 226.268C121.367 226.265 121.367 226.263 121.367 226.26C121.367 226.258 121.367 226.255 121.367 226.253C121.367 226.25 121.367 226.248 121.367 226.245C121.367 226.243 121.367 226.24 121.367 226.238C121.367 226.236 121.367 226.233 121.367 226.231C121.367 226.229 121.367 226.226 121.367 226.224C121.367 226.222 121.367 226.219 121.367 226.217C121.367 226.215 121.367 226.212 121.367 226.21C121.367 226.208 121.367 226.206 121.367 226.203C121.367 226.201 121.367 226.199 121.367 226.197C121.367 226.195 121.367 226.192 121.367 226.19C121.367 226.188 121.367 226.186 121.367 226.184C121.367 226.182 121.367 226.179 121.367 226.177C121.367 226.175 121.367 226.173 121.367 226.171C121.367 226.169 121.367 226.167 121.367 226.165C121.367 226.163 121.367 226.161 121.367 226.159C121.367 226.157 121.367 226.155 121.367 226.153C121.367 226.151 121.367 226.149 121.367 226.147C121.367 226.145 121.367 226.143 121.367 226.141C121.367 226.139 121.367 226.138 121.367 226.136C121.367 226.134 121.367 226.132 121.367 226.13C121.367 226.128 121.367 226.126 121.367 226.125C121.367 226.123 121.367 226.121 121.367 226.119C121.367 226.117 121.367 226.116 121.367 226.114C121.367 226.112 121.367 226.111 121.367 226.109C121.367 226.107 121.367 226.105 121.367 226.104C121.367 226.102 121.367 226.101 121.367 226.099C121.367 226.097 121.367 226.096 121.367 226.094C121.367 226.092 121.367 226.091 121.367 226.089C121.367 226.088 121.367 226.086 121.367 226.085C121.367 226.083 121.367 226.082 121.367 226.08C121.367 226.079 121.367 226.077 121.367 226.076C121.367 226.074 121.367 226.073 121.367 226.071C121.367 226.07 121.367 226.069 121.367 226.067C121.367 226.066 121.367 226.064 121.367 226.063C121.367 226.062 121.367 226.06 121.367 226.059C121.367 226.058 121.367 226.056 121.367 226.055C121.367 226.054 121.367 226.053 121.367 226.051C121.367 226.05 121.367 226.049 121.367 226.048C121.367 226.047 121.367 226.045 121.367 226.044C121.367 226.043 121.367 226.042 121.367 226.041C121.367 226.04 121.367 226.038 121.367 226.037C121.367 226.036 121.367 226.035 121.367 226.034C121.367 226.033 121.367 226.032 121.367 226.031C121.367 226.03 121.367 226.029 121.367 226.028C121.367 226.027 121.367 226.026 121.367 226.025C121.367 226.024 121.367 226.023 121.367 226.022C121.367 226.021 121.367 226.02 121.367 226.02C121.367 226.019 121.367 226.018 121.367 226.017C121.367 226.016 121.367 226.015 121.367 226.014C121.367 226.014 121.367 226.013 121.367 226.012C121.367 226.011 121.367 226.011 121.367 226.01C121.367 226.009 121.367 226.008 121.367 226.008C121.367 226.007 121.367 226.006 121.367 226.006C121.367 226.005 121.367 226.004 121.367 226.004C121.367 226.003 121.367 226.003 121.367 226.002C121.367 226.001 121.367 226.001 121.367 226C121.367 226 121.367 225.999 121.367 225.999C121.367 225.998 121.367 225.998 121.367 225.997C121.367 225.997 121.367 225.996 121.367 225.996C121.367 225.996 121.367 225.995 121.367 225.995C121.367 225.994 121.367 225.994 121.367 225.994C121.367 225.993 121.367 225.993 121.367 225.993C121.367 225.992 121.367 225.992 121.367 225.992C121.367 225.991 121.367 225.991 121.367 225.991C121.367 225.991 121.367 225.991 121.367 225.99C121.367 225.99 121.367 225.99 121.367 225.99C121.367 225.99 121.367 225.989 121.367 225.989C121.367 225.989 121.367 225.989 121.367 225.989C121.367 225.989 121.367 225.989 121.367 225.989C121.367 225.989 121.367 225.989 120.367 225.989ZM119.367 233.853C119.367 235.016 118.916 236.753 118.414 238.294C118.17 239.044 117.925 239.714 117.741 240.197C117.65 240.438 117.573 240.631 117.52 240.763C117.494 240.829 117.473 240.88 117.459 240.914C117.453 240.931 117.447 240.944 117.444 240.952C117.442 240.956 117.441 240.959 117.44 240.961C117.44 240.962 117.44 240.962 117.439 240.963C117.439 240.963 117.439 240.963 117.439 240.963C117.439 240.963 117.439 240.963 117.439 240.963C117.439 240.963 117.439 240.963 118.363 241.347C119.286 241.731 119.286 241.731 119.286 241.731C119.286 241.731 119.286 241.731 119.286 241.731C119.286 241.73 119.286 241.73 119.287 241.73C119.287 241.729 119.287 241.728 119.288 241.726C119.289 241.723 119.291 241.719 119.293 241.714C119.297 241.704 119.303 241.689 119.311 241.67C119.326 241.632 119.349 241.577 119.377 241.506C119.434 241.365 119.514 241.161 119.61 240.908C119.802 240.404 120.059 239.702 120.316 238.913C120.816 237.376 121.367 235.367 121.367 233.853H119.367ZM141.66 287.567C146.548 290.802 159.623 297.255 173.067 297.255V295.255C160.156 295.255 147.466 289.011 142.764 285.899L141.66 287.567ZM194.804 261.613C194.544 268.558 196.055 276.332 198.32 284.243L200.243 283.693C198 275.857 196.555 268.321 196.802 261.687L194.804 261.613ZM198.32 284.243C201.33 294.759 205.728 305.69 209.205 315.357C210.95 320.208 212.465 324.744 213.481 328.792C214.5 332.852 214.997 336.346 214.758 339.135L216.751 339.306C217.018 336.187 216.458 332.439 215.42 328.305C214.38 324.158 212.837 319.547 211.087 314.68C207.573 304.912 203.229 294.124 200.243 283.693L198.32 284.243ZM173.067 297.255C186.642 297.255 196.693 288.841 200.065 284.59L198.498 283.347C195.374 287.286 185.847 295.255 173.067 295.255V297.255ZM213.546 110.577C214.247 111.075 214.797 111.344 215.209 111.486C215.416 111.557 215.588 111.597 215.728 111.617C215.798 111.628 215.859 111.633 215.911 111.636C215.938 111.637 215.962 111.638 215.984 111.637C215.995 111.637 216.005 111.637 216.015 111.637C216.02 111.637 216.025 111.637 216.029 111.636C216.032 111.636 216.034 111.636 216.036 111.636C216.037 111.636 216.038 111.636 216.039 111.636C216.04 111.636 216.041 111.636 216.041 111.636C216.042 111.636 216.043 111.636 215.986 110.637C215.929 109.639 215.93 109.639 215.931 109.639C215.931 109.639 215.932 109.639 215.932 109.639C215.934 109.639 215.935 109.639 215.936 109.639C215.938 109.639 215.94 109.638 215.942 109.638C215.946 109.638 215.95 109.638 215.954 109.638C215.961 109.638 215.968 109.638 215.975 109.638C215.987 109.637 215.998 109.638 216.006 109.638C216.021 109.639 216.027 109.64 216.022 109.639C216.013 109.638 215.96 109.629 215.861 109.595C215.663 109.527 215.282 109.357 214.704 108.947L213.546 110.577ZM216.46 109.757C215.839 109.422 215.184 109.116 214.505 108.837L213.745 110.687C214.367 110.943 214.958 111.219 215.511 111.518L216.46 109.757ZM214.505 108.837C208.288 106.282 199.762 105.875 195.451 106.393L195.69 108.379C199.755 107.89 207.92 108.293 213.745 110.687L214.505 108.837ZM212.306 109.581C212.764 109.988 213.177 110.315 213.546 110.577L214.704 108.947C214.401 108.731 214.045 108.451 213.635 108.086L212.306 109.581ZM237.929 131.945C237.972 131.93 238.015 131.917 238.057 131.903L237.44 130C237.394 130.015 237.347 130.031 237.3 130.046L237.929 131.945ZM238.057 131.903L238.088 131.893L237.472 129.99L237.441 130L238.057 131.903ZM237.473 129.99C237.416 130.008 237.358 130.027 237.3 130.046L237.929 131.945C237.982 131.927 238.035 131.91 238.087 131.893L237.473 129.99ZM237.473 129.99C237.462 129.993 237.451 129.997 237.44 130L238.057 131.903C238.067 131.9 238.077 131.896 238.087 131.893L237.473 129.99ZM237.44 130C236.503 130.304 235.456 130.711 234.542 131.212C233.662 131.694 232.754 132.343 232.279 133.197L234.028 134.168C234.217 133.827 234.702 133.404 235.503 132.966C236.268 132.546 237.188 132.185 238.057 131.903L237.44 130ZM143.059 337.676C140.099 353.695 125.249 364 108.772 364L108.772 366C126.021 366 141.857 355.185 145.026 338.04L143.059 337.676ZM248.47 366C261.797 366 273.474 358.45 280.838 347.818C288.2 337.187 291.337 323.358 287.464 310.648L285.551 311.23C289.217 323.263 286.268 336.465 279.194 346.679C272.121 356.891 261.009 364 248.47 364L248.47 366Z" fill="black"/>
<path d="M175.789 173.751C175.167 173.294 173.317 172.564 170.892 173.294C167.86 174.207 162.259 178.713 158.765 178.998C153.168 179.454 149.689 172.838 144.305 172.838C142.673 172.838 140.34 173.294 140.34 173.294" stroke="black" stroke-width="2" stroke-linecap="round" stroke-linejoin="round"/>
<path d="M178.678 133.178C179.652 131.749 181.088 127.954 183.544 126.034C186.001 124.114 187.993 123.489 191.191 123.132C194.389 122.775 197.216 123.578 200.228 124.918C203.24 126.257 206.484 128.267 208.338 129.83" stroke="black" stroke-width="2" stroke-linecap="round" stroke-linejoin="round"/>
<path fill-rule="evenodd" clip-rule="evenodd" d="M158.785 191.002C160.401 190.076 160.862 189.151 162.94 189.151C164.699 189.151 181.866 192.852 188.097 191.464C188.097 191.464 189.95 190.608 190.174 191.002C191.098 192.621 184.378 214.162 158.785 214.162C138.936 214.162 133.859 197.942 125.319 192.852C124.858 192.622 123.696 191.448 125.088 191.464C132.833 191.554 150.708 189.614 153.016 189.614C155.106 189.614 157.016 190.385 158.785 191.002ZM158.324 205.576C171.433 206.131 183.635 197.325 188.097 192.853C180.404 193.932 164.786 196.786 158.324 196.786C152.22 196.786 135.013 194.241 127.628 192.853C132.397 196.863 145.215 205.021 158.324 205.576Z" fill="#E9D7CE" stroke="black" stroke-width="2" stroke-linecap="round" stroke-linejoin="round"/>
<path d="M205.447 130.476C206.749 130.553 209.44 130.522 209.787 129.781" stroke="black" stroke-width="2" stroke-linecap="round" stroke-linejoin="round"/>
<path fill-rule="evenodd" clip-rule="evenodd" d="M126.059 124.033C128.435 124.266 130.262 124.951 132.126 126.499C132.593 127.599 133.293 129.56 132.593 131.483C132.065 132.934 130.882 133.819 130.493 134.146C128.058 134.266 125.215 134.311 122.325 133.886C121.858 133.817 121.39 133.737 120.925 133.649C120.303 132.606 118.762 130.618 118.762 129.08C118.762 127.542 120.303 125.366 120.925 124.71C122.67 124.183 124.452 123.876 126.059 124.033ZM128.159 128.118C128.159 127.638 128.393 127.157 129.093 127.157C129.692 126.982 130.259 127.878 130.259 128.118C130.259 128.359 129.559 129.08 129.326 129.08C129.093 129.08 128.159 128.599 128.159 128.118Z" fill="black"/>
<path d="M132.126 126.499C134.107 128.143 136.129 130.762 138.894 134.847L137.027 134.126C135.985 133.724 133.564 133.995 130.493 134.146M132.126 126.499C130.262 124.951 128.435 124.266 126.059 124.033C124.452 123.876 122.67 124.183 120.925 124.71M132.126 126.499C132.593 127.599 133.293 129.56 132.593 131.483C132.065 132.934 130.882 133.819 130.493 134.146M130.493 134.146C128.058 134.266 125.215 134.311 122.325 133.886C121.858 133.817 121.39 133.737 120.925 133.649M120.925 124.71C117.35 125.79 113.936 127.792 112.524 128.599C110.844 129.56 110.113 129.961 109.957 130.041C111.728 130.916 116.194 132.748 120.925 133.649M120.925 124.71C120.303 125.366 118.762 127.542 118.762 129.08C118.762 130.618 120.303 132.606 120.925 133.649M129.093 127.157C128.393 127.157 128.159 127.638 128.159 128.118C128.159 128.599 129.093 129.08 129.326 129.08C129.559 129.08 130.259 128.359 130.259 128.118C130.259 127.878 129.692 126.982 129.093 127.157Z" stroke="black" stroke-width="2" stroke-linecap="round" stroke-linejoin="round"/>
<path d="M137.376 132.831C136.379 131.3 134.907 127.234 132.391 125.177C129.875 123.12 127.834 122.45 124.558 122.067C121.282 121.685 118.387 122.546 115.301 123.981C112.215 125.416 108.892 127.569 106.993 129.243" stroke="black" stroke-width="2" stroke-linecap="round" stroke-linejoin="round"/>
<path d="M110.681 129.752C109.162 129.83 106.022 129.799 105.617 129.058" stroke="black" stroke-width="2" stroke-linecap="round" stroke-linejoin="round"/>
</svg>
